<svg width="1440" height="1056" viewBox="0 0 1440 1056" fill="none" xmlns="http://www.w3.org/2000/svg">
<g filter="url(#filter0_d_896_8399)">
<path d="M0 177.928L719.998 0L1442 179.919V769H0V177.928Z" fill="#0275D8"/>
<path d="M1446 870.072L724.005 1048L0 868.081V764H1446V870.072Z" fill="#0275D8"/>
<g filter="url(#filter1_d_896_8399)">
<path d="M599.857 191V161.909H611.334C613.54 161.909 615.42 162.33 616.973 163.173C618.526 164.007 619.71 165.167 620.524 166.653C621.348 168.131 621.76 169.835 621.76 171.767C621.76 173.699 621.343 175.403 620.51 176.881C619.677 178.358 618.469 179.509 616.888 180.332C615.316 181.156 613.412 181.568 611.178 181.568H603.862V176.639H610.183C611.367 176.639 612.342 176.436 613.109 176.028C613.886 175.612 614.464 175.039 614.842 174.31C615.231 173.571 615.425 172.723 615.425 171.767C615.425 170.801 615.231 169.958 614.842 169.239C614.464 168.509 613.886 167.946 613.109 167.548C612.333 167.141 611.348 166.938 610.155 166.938H606.007V191H599.857ZM625.755 191V161.909H645.357V166.98H631.906V173.912H644.349V178.983H631.906V185.929H645.414V191H625.755ZM674.58 161.909V191H669.267L656.611 172.69H656.398V191H650.247V161.909H655.645L668.202 180.205H668.457V161.909H674.58ZM689.974 191H679.661V161.909H690.059C692.985 161.909 695.504 162.491 697.616 163.656C699.728 164.812 701.352 166.473 702.488 168.642C703.634 170.811 704.207 173.405 704.207 176.426C704.207 179.456 703.634 182.061 702.488 184.239C701.352 186.417 699.718 188.088 697.587 189.253C695.466 190.418 692.928 191 689.974 191ZM685.812 185.73H689.718C691.536 185.73 693.066 185.408 694.306 184.764C695.556 184.111 696.494 183.102 697.119 181.739C697.753 180.366 698.07 178.595 698.07 176.426C698.07 174.277 697.753 172.52 697.119 171.156C696.494 169.793 695.561 168.789 694.32 168.145C693.08 167.501 691.55 167.179 689.732 167.179H685.812V185.73ZM714.913 161.909V191H708.763V161.909H714.913ZM730.286 191H719.974V161.909H730.371C733.298 161.909 735.817 162.491 737.928 163.656C740.04 164.812 741.664 166.473 742.8 168.642C743.946 170.811 744.519 173.405 744.519 176.426C744.519 179.456 743.946 182.061 742.8 184.239C741.664 186.417 740.031 188.088 737.9 189.253C735.779 190.418 733.241 191 730.286 191ZM726.124 185.73H730.031C731.849 185.73 733.378 185.408 734.619 184.764C735.869 184.111 736.806 183.102 737.431 181.739C738.066 180.366 738.383 178.595 738.383 176.426C738.383 174.277 738.066 172.52 737.431 171.156C736.806 169.793 735.873 168.789 734.633 168.145C733.392 167.501 731.863 167.179 730.045 167.179H726.124V185.73ZM755.226 161.909V191H749.075V161.909H755.226ZM760.286 191V161.909H766.437V174.736H766.82L777.289 161.909H784.661L773.866 174.935L784.789 191H777.431L769.462 179.04L766.437 182.733V191H760.286ZM792.879 191H786.288L796.33 161.909H804.256L814.285 191H807.694L800.407 168.557H800.18L792.879 191ZM792.467 179.565H808.035V184.366H792.467V179.565ZM842.119 161.909V191H836.806L824.15 172.69H823.937V191H817.786V161.909H823.184L835.741 180.205H835.996V161.909H842.119Z" fill="#F7F7F7"/>
</g>
<g clip-path="url(#clip0_896_8399)">
<g filter="url(#filter2_d_896_8399)">
<path d="M744.684 252.231L737.809 244.262C737.61 244.026 737.343 243.847 737.039 243.746C736.735 243.644 736.406 243.624 736.09 243.688L721 246.844L705.909 243.656C705.594 243.592 705.265 243.612 704.961 243.714C704.657 243.815 704.39 243.994 704.19 244.23L697.315 252.199C697.116 252.432 696.991 252.712 696.954 253.008C696.918 253.304 696.972 253.603 697.109 253.872C697.244 254.149 697.461 254.385 697.735 254.552C698.009 254.718 698.328 254.809 698.656 254.812H743.344C743.668 254.812 743.985 254.726 744.258 254.565C744.532 254.404 744.751 254.175 744.89 253.904C745.028 253.635 745.082 253.336 745.045 253.04C745.009 252.744 744.884 252.464 744.684 252.231Z" fill="#F7F7F7"/>
<path d="M697.831 219.527L720.776 225.52L744.461 219.352C744.647 219.204 744.797 219.021 744.901 218.815C745.005 218.608 745.06 218.384 745.062 218.156C745.078 217.803 744.967 217.454 744.746 217.166C744.525 216.877 744.207 216.665 743.842 216.563L721.498 210.188C721.171 210.108 720.828 210.108 720.501 210.188L698.157 216.563C697.84 216.657 697.559 216.836 697.349 217.076C697.139 217.316 697.009 217.607 696.975 217.914C696.94 218.222 697.003 218.532 697.155 218.807C697.307 219.082 697.542 219.31 697.831 219.463V219.527Z" fill="#F7F7F7"/>
<path d="M721.241 228.707C720.938 228.792 720.615 228.792 720.313 228.707L708.109 225.52V232.947C708.114 235.722 709.305 238.383 711.422 240.346C713.539 242.309 716.408 243.413 719.402 243.418H722.598C725.592 243.413 728.461 242.309 730.578 240.346C732.695 238.383 733.886 235.722 733.891 232.947V225.408L721.241 228.707Z" fill="#F7F7F7"/>
</g>
</g>
<g filter="url(#filter3_d_896_8399)">
<rect x="231.5" y="322" width="979" height="118" rx="20" fill="#F7F7F7" shape-rendering="crispEdges"/>
<path d="M283 362.385H256.421L260.989 400.934L282.976 411.973H283.003L305.022 400.934L309.577 362.385H283ZM302.191 386.61C302.191 386.998 302.191 387.347 301.846 387.493L287.15 394.447L286.064 394.946L285.943 393.555V390.822L286.051 390.129L286.54 389.921L296.941 385.338L287.276 381.099L283.157 389.104L280.711 393.754L280.164 394.756L279.244 394.359L264.153 387.501C263.974 387.425 263.819 387.303 263.705 387.148C263.591 386.992 263.521 386.809 263.503 386.618V384.057C263.518 383.867 263.585 383.685 263.697 383.529C263.809 383.373 263.962 383.251 264.14 383.174L279.396 376.228L280.837 375.592V379.858L280.944 380.449L280.244 380.759L269.74 385.329L279.545 389.581L283.157 382.516L285.943 376.93L286.45 375.923L287.262 376.325L301.846 383.165C302.173 383.32 302.187 383.669 302.187 384.048L302.191 386.61Z" fill="#304046"/>
<path d="M362.486 362.565C362.418 361.878 362.125 361.344 361.608 360.963C361.091 360.582 360.389 360.392 359.503 360.392C358.901 360.392 358.392 360.477 357.977 360.648C357.563 360.812 357.244 361.043 357.023 361.338C356.807 361.634 356.699 361.969 356.699 362.344C356.688 362.656 356.753 362.929 356.895 363.162C357.043 363.395 357.244 363.597 357.5 363.767C357.756 363.932 358.051 364.077 358.386 364.202C358.722 364.321 359.08 364.423 359.46 364.509L361.028 364.884C361.79 365.054 362.489 365.281 363.125 365.565C363.761 365.849 364.313 366.199 364.778 366.614C365.244 367.028 365.605 367.517 365.861 368.08C366.122 368.642 366.256 369.287 366.261 370.014C366.256 371.082 365.983 372.009 365.443 372.793C364.909 373.571 364.136 374.176 363.125 374.608C362.119 375.034 360.906 375.247 359.486 375.247C358.077 375.247 356.849 375.031 355.804 374.599C354.764 374.168 353.952 373.528 353.366 372.682C352.787 371.83 352.483 370.776 352.455 369.52H356.026C356.065 370.105 356.233 370.594 356.528 370.986C356.83 371.372 357.23 371.665 357.73 371.864C358.236 372.057 358.807 372.153 359.443 372.153C360.068 372.153 360.611 372.062 361.071 371.881C361.537 371.699 361.898 371.446 362.153 371.122C362.409 370.798 362.537 370.426 362.537 370.006C362.537 369.614 362.42 369.284 362.188 369.017C361.96 368.75 361.625 368.523 361.182 368.335C360.744 368.148 360.207 367.977 359.571 367.824L357.67 367.347C356.199 366.989 355.037 366.429 354.185 365.668C353.332 364.906 352.909 363.881 352.915 362.591C352.909 361.534 353.19 360.611 353.759 359.821C354.332 359.031 355.119 358.415 356.119 357.972C357.119 357.528 358.256 357.307 359.528 357.307C360.824 357.307 361.955 357.528 362.92 357.972C363.892 358.415 364.648 359.031 365.188 359.821C365.727 360.611 366.006 361.526 366.023 362.565H362.486ZM368.744 357.545H373.295L378.102 369.273H378.306L383.113 357.545H387.664V375H384.085V363.639H383.94L379.423 374.915H376.985L372.468 363.597H372.323V375H368.744V357.545ZM390.705 375V357.545H394.395V365.241H394.625L400.906 357.545H405.33L398.852 365.361L405.406 375H400.991L396.21 367.824L394.395 370.04V375H390.705ZM412.806 375V357.545H416.496V371.957H423.979V375H412.806ZM432.321 375.256C430.974 375.256 429.815 374.983 428.844 374.438C427.878 373.886 427.134 373.108 426.611 372.102C426.088 371.091 425.827 369.895 425.827 368.514C425.827 367.168 426.088 365.986 426.611 364.969C427.134 363.952 427.869 363.159 428.818 362.591C429.773 362.023 430.892 361.739 432.176 361.739C433.04 361.739 433.844 361.878 434.588 362.156C435.338 362.429 435.991 362.841 436.548 363.392C437.111 363.943 437.548 364.636 437.861 365.472C438.173 366.301 438.33 367.273 438.33 368.386V369.384H427.276V367.134H434.912C434.912 366.611 434.798 366.148 434.571 365.744C434.344 365.341 434.028 365.026 433.625 364.798C433.227 364.565 432.764 364.449 432.236 364.449C431.685 364.449 431.196 364.577 430.77 364.832C430.349 365.082 430.02 365.42 429.781 365.847C429.543 366.267 429.42 366.736 429.415 367.253V369.392C429.415 370.04 429.534 370.599 429.773 371.071C430.017 371.543 430.361 371.906 430.804 372.162C431.247 372.418 431.773 372.545 432.381 372.545C432.784 372.545 433.153 372.489 433.489 372.375C433.824 372.261 434.111 372.091 434.349 371.864C434.588 371.636 434.77 371.358 434.895 371.028L438.253 371.25C438.082 372.057 437.733 372.761 437.205 373.364C436.682 373.96 436.006 374.426 435.176 374.761C434.352 375.091 433.401 375.256 432.321 375.256ZM444.33 367.432V375H440.699V361.909H444.159V364.219H444.312C444.602 363.457 445.088 362.855 445.77 362.412C446.452 361.963 447.278 361.739 448.25 361.739C449.159 361.739 449.952 361.938 450.628 362.335C451.304 362.733 451.83 363.301 452.205 364.04C452.58 364.773 452.767 365.648 452.767 366.665V375H449.136V367.312C449.142 366.511 448.938 365.886 448.523 365.438C448.108 364.983 447.537 364.756 446.81 364.756C446.321 364.756 445.889 364.861 445.514 365.071C445.145 365.281 444.855 365.588 444.645 365.991C444.44 366.389 444.335 366.869 444.33 367.432ZM462.592 361.909V364.636H454.708V361.909H462.592ZM456.498 358.773H460.129V370.977C460.129 371.312 460.18 371.574 460.282 371.761C460.384 371.943 460.526 372.071 460.708 372.145C460.896 372.219 461.112 372.256 461.356 372.256C461.526 372.256 461.697 372.241 461.867 372.213C462.038 372.179 462.168 372.153 462.259 372.136L462.83 374.838C462.648 374.895 462.393 374.96 462.063 375.034C461.734 375.114 461.333 375.162 460.862 375.179C459.987 375.213 459.219 375.097 458.56 374.83C457.907 374.562 457.398 374.148 457.035 373.585C456.671 373.023 456.492 372.312 456.498 371.455V358.773ZM470.782 375.256C469.435 375.256 468.276 374.983 467.305 374.438C466.339 373.886 465.594 373.108 465.072 372.102C464.549 371.091 464.288 369.895 464.288 368.514C464.288 367.168 464.549 365.986 465.072 364.969C465.594 363.952 466.33 363.159 467.279 362.591C468.234 362.023 469.353 361.739 470.637 361.739C471.501 361.739 472.305 361.878 473.049 362.156C473.799 362.429 474.452 362.841 475.009 363.392C475.572 363.943 476.009 364.636 476.322 365.472C476.634 366.301 476.79 367.273 476.79 368.386V369.384H465.737V367.134H473.373C473.373 366.611 473.259 366.148 473.032 365.744C472.805 365.341 472.489 365.026 472.086 364.798C471.688 364.565 471.225 364.449 470.697 364.449C470.146 364.449 469.657 364.577 469.231 364.832C468.81 365.082 468.481 365.42 468.242 365.847C468.004 366.267 467.881 366.736 467.876 367.253V369.392C467.876 370.04 467.995 370.599 468.234 371.071C468.478 371.543 468.822 371.906 469.265 372.162C469.708 372.418 470.234 372.545 470.842 372.545C471.245 372.545 471.614 372.489 471.95 372.375C472.285 372.261 472.572 372.091 472.81 371.864C473.049 371.636 473.231 371.358 473.356 371.028L476.714 371.25C476.543 372.057 476.194 372.761 475.665 373.364C475.143 373.96 474.467 374.426 473.637 374.761C472.813 375.091 471.862 375.256 470.782 375.256ZM479.16 375V361.909H482.68V364.193H482.816C483.055 363.381 483.455 362.767 484.018 362.352C484.58 361.932 485.228 361.722 485.961 361.722C486.143 361.722 486.339 361.733 486.549 361.756C486.759 361.778 486.944 361.81 487.103 361.849V365.071C486.933 365.02 486.697 364.974 486.396 364.935C486.094 364.895 485.819 364.875 485.569 364.875C485.035 364.875 484.558 364.991 484.137 365.224C483.722 365.452 483.393 365.77 483.148 366.179C482.91 366.588 482.79 367.06 482.79 367.594V375H479.16ZM492.338 375.247C491.503 375.247 490.759 375.102 490.105 374.812C489.452 374.517 488.935 374.082 488.554 373.509C488.179 372.929 487.991 372.207 487.991 371.344C487.991 370.616 488.125 370.006 488.392 369.511C488.659 369.017 489.023 368.619 489.483 368.318C489.943 368.017 490.466 367.79 491.051 367.636C491.642 367.483 492.261 367.375 492.909 367.312C493.67 367.233 494.284 367.159 494.75 367.091C495.216 367.017 495.554 366.909 495.764 366.767C495.974 366.625 496.08 366.415 496.08 366.136V366.085C496.08 365.545 495.909 365.128 495.568 364.832C495.233 364.537 494.756 364.389 494.136 364.389C493.483 364.389 492.963 364.534 492.577 364.824C492.19 365.108 491.935 365.466 491.81 365.898L488.452 365.625C488.622 364.83 488.957 364.142 489.457 363.562C489.957 362.977 490.602 362.528 491.392 362.216C492.188 361.898 493.108 361.739 494.153 361.739C494.881 361.739 495.577 361.824 496.241 361.994C496.912 362.165 497.506 362.429 498.023 362.787C498.545 363.145 498.957 363.605 499.259 364.168C499.56 364.724 499.71 365.392 499.71 366.17V375H496.267V373.185H496.165C495.955 373.594 495.673 373.955 495.321 374.267C494.969 374.574 494.545 374.815 494.051 374.991C493.557 375.162 492.986 375.247 492.338 375.247ZM493.378 372.741C493.912 372.741 494.384 372.636 494.793 372.426C495.202 372.21 495.523 371.92 495.756 371.557C495.989 371.193 496.105 370.781 496.105 370.321V368.932C495.991 369.006 495.835 369.074 495.636 369.136C495.443 369.193 495.224 369.247 494.98 369.298C494.736 369.344 494.491 369.386 494.247 369.426C494.003 369.46 493.781 369.491 493.582 369.52C493.156 369.582 492.784 369.682 492.466 369.818C492.148 369.955 491.901 370.139 491.724 370.372C491.548 370.599 491.46 370.884 491.46 371.224C491.46 371.719 491.639 372.097 491.997 372.358C492.361 372.614 492.821 372.741 493.378 372.741ZM508.15 375V357.545H515.138C516.423 357.545 517.494 357.736 518.352 358.116C519.21 358.497 519.854 359.026 520.286 359.702C520.718 360.372 520.934 361.145 520.934 362.02C520.934 362.702 520.798 363.301 520.525 363.818C520.252 364.33 519.877 364.75 519.4 365.08C518.928 365.403 518.388 365.634 517.781 365.77V365.94C518.445 365.969 519.067 366.156 519.647 366.503C520.232 366.849 520.707 367.335 521.07 367.96C521.434 368.58 521.616 369.318 521.616 370.176C521.616 371.102 521.386 371.929 520.925 372.656C520.471 373.378 519.798 373.949 518.906 374.369C518.013 374.79 516.914 375 515.607 375H508.15ZM511.84 371.983H514.849C515.877 371.983 516.627 371.787 517.099 371.395C517.57 370.997 517.806 370.469 517.806 369.81C517.806 369.327 517.69 368.901 517.457 368.531C517.224 368.162 516.891 367.872 516.46 367.662C516.033 367.452 515.525 367.347 514.934 367.347H511.84V371.983ZM511.84 364.849H514.576C515.082 364.849 515.531 364.761 515.923 364.585C516.32 364.403 516.633 364.148 516.86 363.818C517.093 363.489 517.21 363.094 517.21 362.634C517.21 362.003 516.985 361.494 516.536 361.108C516.093 360.722 515.462 360.528 514.644 360.528H511.84V364.849ZM527.682 375.247C526.847 375.247 526.102 375.102 525.449 374.812C524.795 374.517 524.278 374.082 523.898 373.509C523.523 372.929 523.335 372.207 523.335 371.344C523.335 370.616 523.469 370.006 523.736 369.511C524.003 369.017 524.366 368.619 524.827 368.318C525.287 368.017 525.81 367.79 526.395 367.636C526.986 367.483 527.605 367.375 528.253 367.312C529.014 367.233 529.628 367.159 530.094 367.091C530.56 367.017 530.898 366.909 531.108 366.767C531.318 366.625 531.423 366.415 531.423 366.136V366.085C531.423 365.545 531.253 365.128 530.912 364.832C530.577 364.537 530.099 364.389 529.48 364.389C528.827 364.389 528.307 364.534 527.92 364.824C527.534 365.108 527.278 365.466 527.153 365.898L523.795 365.625C523.966 364.83 524.301 364.142 524.801 363.562C525.301 362.977 525.946 362.528 526.736 362.216C527.531 361.898 528.452 361.739 529.497 361.739C530.224 361.739 530.92 361.824 531.585 361.994C532.256 362.165 532.849 362.429 533.366 362.787C533.889 363.145 534.301 363.605 534.602 364.168C534.903 364.724 535.054 365.392 535.054 366.17V375H531.611V373.185H531.509C531.298 373.594 531.017 373.955 530.665 374.267C530.312 374.574 529.889 374.815 529.395 374.991C528.901 375.162 528.33 375.247 527.682 375.247ZM528.722 372.741C529.256 372.741 529.727 372.636 530.136 372.426C530.545 372.21 530.866 371.92 531.099 371.557C531.332 371.193 531.449 370.781 531.449 370.321V368.932C531.335 369.006 531.179 369.074 530.98 369.136C530.787 369.193 530.568 369.247 530.324 369.298C530.08 369.344 529.835 369.386 529.591 369.426C529.347 369.46 529.125 369.491 528.926 369.52C528.5 369.582 528.128 369.682 527.81 369.818C527.491 369.955 527.244 370.139 527.068 370.372C526.892 370.599 526.804 370.884 526.804 371.224C526.804 371.719 526.983 372.097 527.341 372.358C527.705 372.614 528.165 372.741 528.722 372.741ZM541.501 367.432V375H537.871V361.909H541.331V364.219H541.484C541.774 363.457 542.26 362.855 542.942 362.412C543.624 361.963 544.45 361.739 545.422 361.739C546.331 361.739 547.124 361.938 547.8 362.335C548.476 362.733 549.001 363.301 549.376 364.04C549.751 364.773 549.939 365.648 549.939 366.665V375H546.308V367.312C546.314 366.511 546.109 365.886 545.695 365.438C545.28 364.983 544.709 364.756 543.982 364.756C543.493 364.756 543.061 364.861 542.686 365.071C542.317 365.281 542.027 365.588 541.817 365.991C541.612 366.389 541.507 366.869 541.501 367.432ZM558.698 380.182C557.522 380.182 556.513 380.02 555.673 379.696C554.837 379.378 554.173 378.943 553.678 378.392C553.184 377.841 552.863 377.222 552.715 376.534L556.073 376.082C556.175 376.344 556.337 376.588 556.559 376.815C556.781 377.043 557.073 377.224 557.437 377.361C557.806 377.503 558.255 377.574 558.783 377.574C559.573 377.574 560.224 377.381 560.735 376.994C561.252 376.614 561.511 375.974 561.511 375.077V372.682H561.357C561.198 373.045 560.96 373.389 560.641 373.713C560.323 374.037 559.914 374.301 559.414 374.506C558.914 374.71 558.317 374.812 557.624 374.812C556.641 374.812 555.746 374.585 554.94 374.131C554.138 373.67 553.499 372.969 553.022 372.026C552.55 371.077 552.315 369.878 552.315 368.429C552.315 366.946 552.556 365.707 553.039 364.713C553.522 363.719 554.164 362.974 554.965 362.48C555.772 361.986 556.656 361.739 557.616 361.739C558.349 361.739 558.962 361.864 559.457 362.114C559.951 362.358 560.349 362.665 560.65 363.034C560.957 363.398 561.192 363.756 561.357 364.108H561.494V361.909H565.099V375.128C565.099 376.241 564.826 377.173 564.281 377.923C563.735 378.673 562.979 379.236 562.013 379.611C561.053 379.991 559.948 380.182 558.698 380.182ZM558.775 372.085C559.36 372.085 559.854 371.94 560.258 371.651C560.667 371.355 560.979 370.935 561.195 370.389C561.417 369.838 561.528 369.179 561.528 368.412C561.528 367.645 561.42 366.98 561.204 366.418C560.988 365.849 560.675 365.409 560.266 365.097C559.857 364.784 559.36 364.628 558.775 364.628C558.178 364.628 557.675 364.79 557.266 365.114C556.857 365.432 556.548 365.875 556.337 366.443C556.127 367.011 556.022 367.668 556.022 368.412C556.022 369.168 556.127 369.821 556.337 370.372C556.553 370.918 556.863 371.341 557.266 371.642C557.675 371.937 558.178 372.085 558.775 372.085ZM578.88 365.642L575.556 365.847C575.499 365.562 575.377 365.307 575.19 365.08C575.002 364.847 574.755 364.662 574.448 364.526C574.147 364.384 573.786 364.312 573.366 364.312C572.803 364.312 572.329 364.432 571.942 364.67C571.556 364.903 571.363 365.216 571.363 365.608C571.363 365.92 571.488 366.185 571.738 366.401C571.988 366.616 572.417 366.79 573.025 366.92L575.394 367.398C576.667 367.659 577.616 368.08 578.241 368.659C578.866 369.239 579.178 370 579.178 370.943C579.178 371.801 578.925 372.554 578.42 373.202C577.92 373.849 577.232 374.355 576.357 374.719C575.488 375.077 574.485 375.256 573.349 375.256C571.616 375.256 570.235 374.895 569.207 374.173C568.184 373.446 567.585 372.457 567.408 371.207L570.979 371.02C571.087 371.548 571.349 371.952 571.763 372.23C572.178 372.503 572.71 372.639 573.357 372.639C573.994 372.639 574.505 372.517 574.891 372.273C575.283 372.023 575.482 371.702 575.488 371.31C575.482 370.98 575.343 370.71 575.07 370.5C574.798 370.284 574.377 370.119 573.809 370.006L571.542 369.554C570.263 369.298 569.312 368.855 568.687 368.224C568.067 367.594 567.758 366.79 567.758 365.812C567.758 364.972 567.985 364.247 568.44 363.639C568.9 363.031 569.545 362.562 570.374 362.233C571.21 361.903 572.187 361.739 573.306 361.739C574.96 361.739 576.261 362.088 577.21 362.787C578.164 363.486 578.721 364.437 578.88 365.642ZM585.197 375.247C584.362 375.247 583.618 375.102 582.964 374.812C582.311 374.517 581.794 374.082 581.413 373.509C581.038 372.929 580.851 372.207 580.851 371.344C580.851 370.616 580.984 370.006 581.251 369.511C581.518 369.017 581.882 368.619 582.342 368.318C582.803 368.017 583.325 367.79 583.911 367.636C584.501 367.483 585.121 367.375 585.768 367.312C586.53 367.233 587.143 367.159 587.609 367.091C588.075 367.017 588.413 366.909 588.624 366.767C588.834 366.625 588.939 366.415 588.939 366.136V366.085C588.939 365.545 588.768 365.128 588.428 364.832C588.092 364.537 587.615 364.389 586.996 364.389C586.342 364.389 585.822 364.534 585.436 364.824C585.05 365.108 584.794 365.466 584.669 365.898L581.311 365.625C581.482 364.83 581.817 364.142 582.317 363.562C582.817 362.977 583.462 362.528 584.251 362.216C585.047 361.898 585.967 361.739 587.013 361.739C587.74 361.739 588.436 361.824 589.101 361.994C589.771 362.165 590.365 362.429 590.882 362.787C591.405 363.145 591.817 363.605 592.118 364.168C592.419 364.724 592.57 365.392 592.57 366.17V375H589.126V373.185H589.024C588.814 373.594 588.533 373.955 588.18 374.267C587.828 374.574 587.405 374.815 586.911 374.991C586.416 375.162 585.845 375.247 585.197 375.247ZM586.237 372.741C586.771 372.741 587.243 372.636 587.652 372.426C588.061 372.21 588.382 371.92 588.615 371.557C588.848 371.193 588.964 370.781 588.964 370.321V368.932C588.851 369.006 588.695 369.074 588.496 369.136C588.303 369.193 588.084 369.247 587.839 369.298C587.595 369.344 587.351 369.386 587.107 369.426C586.862 369.46 586.641 369.491 586.442 369.52C586.016 369.582 585.643 369.682 585.325 369.818C585.007 369.955 584.76 370.139 584.584 370.372C584.408 370.599 584.32 370.884 584.32 371.224C584.32 371.719 584.499 372.097 584.857 372.358C585.22 372.614 585.68 372.741 586.237 372.741ZM601.009 375V357.545H604.7V365.241H604.93L611.211 357.545H615.634L609.157 365.361L615.711 375H611.296L606.515 367.824L604.7 370.04V375H601.009ZM621.221 375.247C620.386 375.247 619.641 375.102 618.988 374.812C618.335 374.517 617.817 374.082 617.437 373.509C617.062 372.929 616.874 372.207 616.874 371.344C616.874 370.616 617.008 370.006 617.275 369.511C617.542 369.017 617.906 368.619 618.366 368.318C618.826 368.017 619.349 367.79 619.934 367.636C620.525 367.483 621.144 367.375 621.792 367.312C622.553 367.233 623.167 367.159 623.633 367.091C624.099 367.017 624.437 366.909 624.647 366.767C624.857 366.625 624.962 366.415 624.962 366.136V366.085C624.962 365.545 624.792 365.128 624.451 364.832C624.116 364.537 623.638 364.389 623.019 364.389C622.366 364.389 621.846 364.534 621.46 364.824C621.073 365.108 620.817 365.466 620.692 365.898L617.335 365.625C617.505 364.83 617.84 364.142 618.34 363.562C618.84 362.977 619.485 362.528 620.275 362.216C621.07 361.898 621.991 361.739 623.036 361.739C623.763 361.739 624.46 361.824 625.124 361.994C625.795 362.165 626.388 362.429 626.906 362.787C627.428 363.145 627.84 363.605 628.141 364.168C628.442 364.724 628.593 365.392 628.593 366.17V375H625.15V373.185H625.048C624.837 373.594 624.556 373.955 624.204 374.267C623.852 374.574 623.428 374.815 622.934 374.991C622.44 375.162 621.869 375.247 621.221 375.247ZM622.261 372.741C622.795 372.741 623.266 372.636 623.675 372.426C624.085 372.21 624.406 371.92 624.638 371.557C624.871 371.193 624.988 370.781 624.988 370.321V368.932C624.874 369.006 624.718 369.074 624.519 369.136C624.326 369.193 624.107 369.247 623.863 369.298C623.619 369.344 623.374 369.386 623.13 369.426C622.886 369.46 622.664 369.491 622.465 369.52C622.039 369.582 621.667 369.682 621.349 369.818C621.031 369.955 620.783 370.139 620.607 370.372C620.431 370.599 620.343 370.884 620.343 371.224C620.343 371.719 620.522 372.097 620.88 372.358C621.244 372.614 621.704 372.741 622.261 372.741ZM631.41 375V361.909H634.93V364.193H635.066C635.305 363.381 635.705 362.767 636.268 362.352C636.83 361.932 637.478 361.722 638.211 361.722C638.393 361.722 638.589 361.733 638.799 361.756C639.009 361.778 639.194 361.81 639.353 361.849V365.071C639.183 365.02 638.947 364.974 638.646 364.935C638.344 364.895 638.069 364.875 637.819 364.875C637.285 364.875 636.808 364.991 636.387 365.224C635.972 365.452 635.643 365.77 635.398 366.179C635.16 366.588 635.04 367.06 635.04 367.594V375H631.41ZM644.588 375.247C643.753 375.247 643.009 375.102 642.355 374.812C641.702 374.517 641.185 374.082 640.804 373.509C640.429 372.929 640.241 372.207 640.241 371.344C640.241 370.616 640.375 370.006 640.642 369.511C640.909 369.017 641.273 368.619 641.733 368.318C642.193 368.017 642.716 367.79 643.301 367.636C643.892 367.483 644.511 367.375 645.159 367.312C645.92 367.233 646.534 367.159 647 367.091C647.466 367.017 647.804 366.909 648.014 366.767C648.224 366.625 648.33 366.415 648.33 366.136V366.085C648.33 365.545 648.159 365.128 647.818 364.832C647.483 364.537 647.006 364.389 646.386 364.389C645.733 364.389 645.213 364.534 644.827 364.824C644.44 365.108 644.185 365.466 644.06 365.898L640.702 365.625C640.872 364.83 641.207 364.142 641.707 363.562C642.207 362.977 642.852 362.528 643.642 362.216C644.438 361.898 645.358 361.739 646.403 361.739C647.131 361.739 647.827 361.824 648.491 361.994C649.162 362.165 649.756 362.429 650.273 362.787C650.795 363.145 651.207 363.605 651.509 364.168C651.81 364.724 651.96 365.392 651.96 366.17V375H648.517V373.185H648.415C648.205 373.594 647.923 373.955 647.571 374.267C647.219 374.574 646.795 374.815 646.301 374.991C645.807 375.162 645.236 375.247 644.588 375.247ZM645.628 372.741C646.162 372.741 646.634 372.636 647.043 372.426C647.452 372.21 647.773 371.92 648.006 371.557C648.239 371.193 648.355 370.781 648.355 370.321V368.932C648.241 369.006 648.085 369.074 647.886 369.136C647.693 369.193 647.474 369.247 647.23 369.298C646.986 369.344 646.741 369.386 646.497 369.426C646.253 369.46 646.031 369.491 645.832 369.52C645.406 369.582 645.034 369.682 644.716 369.818C644.398 369.955 644.151 370.139 643.974 370.372C643.798 370.599 643.71 370.884 643.71 371.224C643.71 371.719 643.889 372.097 644.247 372.358C644.611 372.614 645.071 372.741 645.628 372.741ZM657.359 375L653.797 361.909H657.47L659.499 370.705H659.618L661.732 361.909H665.337L667.484 370.653H667.595L669.589 361.909H673.254L669.7 375H665.857L663.607 366.767H663.445L661.195 375H657.359ZM678.924 375.247C678.089 375.247 677.344 375.102 676.691 374.812C676.038 374.517 675.521 374.082 675.14 373.509C674.765 372.929 674.577 372.207 674.577 371.344C674.577 370.616 674.711 370.006 674.978 369.511C675.245 369.017 675.609 368.619 676.069 368.318C676.529 368.017 677.052 367.79 677.637 367.636C678.228 367.483 678.847 367.375 679.495 367.312C680.256 367.233 680.87 367.159 681.336 367.091C681.802 367.017 682.14 366.909 682.35 366.767C682.56 366.625 682.665 366.415 682.665 366.136V366.085C682.665 365.545 682.495 365.128 682.154 364.832C681.819 364.537 681.342 364.389 680.722 364.389C680.069 364.389 679.549 364.534 679.163 364.824C678.776 365.108 678.521 365.466 678.396 365.898L675.038 365.625C675.208 364.83 675.543 364.142 676.043 363.562C676.543 362.977 677.188 362.528 677.978 362.216C678.773 361.898 679.694 361.739 680.739 361.739C681.467 361.739 682.163 361.824 682.827 361.994C683.498 362.165 684.092 362.429 684.609 362.787C685.131 363.145 685.543 363.605 685.844 364.168C686.146 364.724 686.296 365.392 686.296 366.17V375H682.853V373.185H682.751C682.54 373.594 682.259 373.955 681.907 374.267C681.555 374.574 681.131 374.815 680.637 374.991C680.143 375.162 679.572 375.247 678.924 375.247ZM679.964 372.741C680.498 372.741 680.969 372.636 681.379 372.426C681.788 372.21 682.109 371.92 682.342 371.557C682.575 371.193 682.691 370.781 682.691 370.321V368.932C682.577 369.006 682.421 369.074 682.222 369.136C682.029 369.193 681.81 369.247 681.566 369.298C681.322 369.344 681.077 369.386 680.833 369.426C680.589 369.46 680.367 369.491 680.168 369.52C679.742 369.582 679.37 369.682 679.052 369.818C678.734 369.955 678.487 370.139 678.31 370.372C678.134 370.599 678.046 370.884 678.046 371.224C678.046 371.719 678.225 372.097 678.583 372.358C678.947 372.614 679.407 372.741 679.964 372.741ZM692.744 367.432V375H689.113V361.909H692.573V364.219H692.727C693.016 363.457 693.502 362.855 694.184 362.412C694.866 361.963 695.692 361.739 696.664 361.739C697.573 361.739 698.366 361.938 699.042 362.335C699.718 362.733 700.244 363.301 700.619 364.04C700.994 364.773 701.181 365.648 701.181 366.665V375H697.55V367.312C697.556 366.511 697.352 365.886 696.937 365.438C696.522 364.983 695.951 364.756 695.224 364.756C694.735 364.756 694.303 364.861 693.928 365.071C693.559 365.281 693.269 365.588 693.059 365.991C692.854 366.389 692.749 366.869 692.744 367.432ZM709.94 380.182C708.764 380.182 707.756 380.02 706.915 379.696C706.08 379.378 705.415 378.943 704.92 378.392C704.426 377.841 704.105 377.222 703.957 376.534L707.315 376.082C707.418 376.344 707.58 376.588 707.801 376.815C708.023 377.043 708.315 377.224 708.679 377.361C709.048 377.503 709.497 377.574 710.026 377.574C710.815 377.574 711.466 377.381 711.977 376.994C712.494 376.614 712.753 375.974 712.753 375.077V372.682H712.599C712.44 373.045 712.202 373.389 711.884 373.713C711.565 374.037 711.156 374.301 710.656 374.506C710.156 374.71 709.56 374.812 708.866 374.812C707.884 374.812 706.989 374.585 706.182 374.131C705.381 373.67 704.741 372.969 704.264 372.026C703.793 371.077 703.557 369.878 703.557 368.429C703.557 366.946 703.798 365.707 704.281 364.713C704.764 363.719 705.406 362.974 706.207 362.48C707.014 361.986 707.898 361.739 708.858 361.739C709.591 361.739 710.205 361.864 710.699 362.114C711.193 362.358 711.591 362.665 711.892 363.034C712.199 363.398 712.435 363.756 712.599 364.108H712.736V361.909H716.341V375.128C716.341 376.241 716.068 377.173 715.523 377.923C714.977 378.673 714.222 379.236 713.256 379.611C712.295 379.991 711.19 380.182 709.94 380.182ZM710.017 372.085C710.602 372.085 711.097 371.94 711.5 371.651C711.909 371.355 712.222 370.935 712.438 370.389C712.659 369.838 712.77 369.179 712.77 368.412C712.77 367.645 712.662 366.98 712.446 366.418C712.23 365.849 711.918 365.409 711.509 365.097C711.099 364.784 710.602 364.628 710.017 364.628C709.42 364.628 708.918 364.79 708.509 365.114C708.099 365.432 707.79 365.875 707.58 366.443C707.369 367.011 707.264 367.668 707.264 368.412C707.264 369.168 707.369 369.821 707.58 370.372C707.795 370.918 708.105 371.341 708.509 371.642C708.918 371.937 709.42 372.085 710.017 372.085Z" fill="black"/>
<path d="M353.261 405V390.455H358.176C359.313 390.455 360.245 390.649 360.974 391.037C361.704 391.42 362.243 391.948 362.594 392.621C362.944 393.293 363.119 394.058 363.119 394.915C363.119 395.772 362.944 396.532 362.594 397.195C362.243 397.857 361.706 398.378 360.982 398.757C360.257 399.131 359.331 399.318 358.205 399.318H354.227V397.727H358.148C358.924 397.727 359.549 397.614 360.023 397.386C360.501 397.159 360.847 396.837 361.06 396.42C361.277 395.999 361.386 395.497 361.386 394.915C361.386 394.332 361.277 393.823 361.06 393.388C360.842 392.952 360.494 392.616 360.016 392.379C359.537 392.138 358.905 392.017 358.119 392.017H355.023V405H353.261ZM360.108 398.466L363.688 405H361.642L358.119 398.466H360.108ZM370.284 405.227C369.233 405.227 368.326 404.995 367.564 404.531C366.806 404.062 366.221 403.409 365.809 402.571C365.402 401.728 365.199 400.748 365.199 399.631C365.199 398.513 365.402 397.528 365.809 396.676C366.221 395.819 366.794 395.152 367.528 394.673C368.267 394.19 369.128 393.949 370.113 393.949C370.681 393.949 371.243 394.044 371.797 394.233C372.35 394.422 372.855 394.73 373.309 395.156C373.764 395.578 374.126 396.136 374.396 396.832C374.666 397.528 374.801 398.385 374.801 399.403V400.114H366.392V398.665H373.096C373.096 398.049 372.973 397.5 372.727 397.017C372.485 396.534 372.14 396.153 371.69 395.874C371.245 395.594 370.719 395.455 370.113 395.455C369.446 395.455 368.868 395.62 368.38 395.952C367.897 396.278 367.526 396.705 367.265 397.23C367.005 397.756 366.875 398.319 366.875 398.92V399.886C366.875 400.71 367.017 401.409 367.301 401.982C367.59 402.55 367.99 402.983 368.501 403.281C369.012 403.575 369.607 403.722 370.284 403.722C370.724 403.722 371.122 403.66 371.477 403.537C371.837 403.409 372.147 403.22 372.407 402.969C372.668 402.713 372.869 402.396 373.011 402.017L374.63 402.472C374.46 403.021 374.173 403.504 373.771 403.92C373.368 404.332 372.871 404.654 372.279 404.886C371.688 405.114 371.022 405.227 370.284 405.227ZM378.913 401.023L378.885 398.949H379.225L383.998 394.091H386.072L380.987 399.233H380.845L378.913 401.023ZM377.35 405V390.455H379.027V405H377.35ZM384.282 405L380.021 399.602L381.214 398.438L386.413 405H384.282ZM391.44 405.256C390.748 405.256 390.121 405.125 389.558 404.865C388.994 404.6 388.547 404.219 388.215 403.722C387.884 403.22 387.718 402.614 387.718 401.903C387.718 401.278 387.841 400.772 388.087 400.384C388.334 399.991 388.663 399.683 389.075 399.46C389.487 399.238 389.941 399.072 390.438 398.963C390.94 398.849 391.444 398.759 391.951 398.693C392.614 398.608 393.151 398.544 393.563 398.501C393.98 398.454 394.283 398.376 394.472 398.267C394.666 398.158 394.763 397.969 394.763 397.699V397.642C394.763 396.941 394.572 396.397 394.188 396.009C393.809 395.62 393.234 395.426 392.462 395.426C391.662 395.426 391.035 395.601 390.58 395.952C390.126 396.302 389.806 396.676 389.621 397.074L388.031 396.506C388.315 395.843 388.693 395.327 389.167 394.957C389.645 394.583 390.166 394.323 390.729 394.176C391.298 394.025 391.856 393.949 392.406 393.949C392.756 393.949 393.158 393.991 393.613 394.077C394.072 394.157 394.515 394.325 394.941 394.581C395.372 394.837 395.729 395.223 396.013 395.739C396.298 396.255 396.44 396.946 396.44 397.812V405H394.763V403.523H394.678C394.565 403.759 394.375 404.013 394.11 404.283C393.845 404.553 393.492 404.782 393.052 404.972C392.612 405.161 392.074 405.256 391.44 405.256ZM391.695 403.75C392.358 403.75 392.917 403.62 393.371 403.359C393.831 403.099 394.176 402.763 394.408 402.351C394.645 401.939 394.763 401.506 394.763 401.051V399.517C394.692 399.602 394.536 399.68 394.295 399.751C394.058 399.818 393.783 399.877 393.471 399.929C393.163 399.976 392.862 400.019 392.569 400.057C392.28 400.09 392.046 400.118 391.866 400.142C391.43 400.199 391.023 400.291 390.644 400.419C390.27 400.542 389.967 400.729 389.735 400.98C389.508 401.226 389.394 401.562 389.394 401.989C389.394 402.571 389.61 403.011 390.04 403.31C390.476 403.603 391.028 403.75 391.695 403.75ZM400.188 409.091C399.904 409.091 399.65 409.067 399.428 409.02C399.205 408.977 399.051 408.935 398.966 408.892L399.392 407.415C399.8 407.519 400.159 407.557 400.472 407.528C400.784 407.5 401.061 407.36 401.303 407.109C401.549 406.863 401.774 406.463 401.978 405.909L402.29 405.057L398.256 394.091H400.074L403.086 402.784H403.199L406.211 394.091H408.029L403.398 406.591C403.19 407.154 402.932 407.621 402.624 407.99C402.316 408.364 401.959 408.641 401.551 408.821C401.149 409.001 400.694 409.091 400.188 409.091ZM413.119 405.256C412.428 405.256 411.801 405.125 411.237 404.865C410.674 404.6 410.226 404.219 409.895 403.722C409.563 403.22 409.398 402.614 409.398 401.903C409.398 401.278 409.521 400.772 409.767 400.384C410.013 399.991 410.342 399.683 410.754 399.46C411.166 399.238 411.621 399.072 412.118 398.963C412.62 398.849 413.124 398.759 413.631 398.693C414.294 398.608 414.831 398.544 415.243 398.501C415.66 398.454 415.963 398.376 416.152 398.267C416.346 398.158 416.443 397.969 416.443 397.699V397.642C416.443 396.941 416.251 396.397 415.868 396.009C415.489 395.62 414.914 395.426 414.142 395.426C413.342 395.426 412.714 395.601 412.26 395.952C411.805 396.302 411.486 396.676 411.301 397.074L409.71 396.506C409.994 395.843 410.373 395.327 410.847 394.957C411.325 394.583 411.846 394.323 412.409 394.176C412.977 394.025 413.536 393.949 414.085 393.949C414.436 393.949 414.838 393.991 415.293 394.077C415.752 394.157 416.195 394.325 416.621 394.581C417.052 394.837 417.409 395.223 417.693 395.739C417.977 396.255 418.119 396.946 418.119 397.812V405H416.443V403.523H416.358C416.244 403.759 416.055 404.013 415.79 404.283C415.525 404.553 415.172 404.782 414.732 404.972C414.291 405.161 413.754 405.256 413.119 405.256ZM413.375 403.75C414.038 403.75 414.597 403.62 415.051 403.359C415.51 403.099 415.856 402.763 416.088 402.351C416.325 401.939 416.443 401.506 416.443 401.051V399.517C416.372 399.602 416.216 399.68 415.974 399.751C415.738 399.818 415.463 399.877 415.151 399.929C414.843 399.976 414.542 400.019 414.249 400.057C413.96 400.09 413.725 400.118 413.545 400.142C413.11 400.199 412.703 400.291 412.324 400.419C411.95 400.542 411.647 400.729 411.415 400.98C411.188 401.226 411.074 401.562 411.074 401.989C411.074 402.571 411.289 403.011 411.72 403.31C412.156 403.603 412.707 403.75 413.375 403.75ZM428.906 396.534L427.4 396.96C427.306 396.709 427.166 396.465 426.981 396.229C426.801 395.987 426.555 395.788 426.243 395.632C425.93 395.476 425.53 395.398 425.042 395.398C424.375 395.398 423.818 395.552 423.373 395.859C422.933 396.162 422.713 396.548 422.713 397.017C422.713 397.434 422.864 397.763 423.167 398.004C423.47 398.246 423.944 398.447 424.588 398.608L426.207 399.006C427.182 399.242 427.909 399.605 428.387 400.092C428.866 400.575 429.105 401.198 429.105 401.96C429.105 402.585 428.925 403.144 428.565 403.636C428.21 404.129 427.713 404.517 427.074 404.801C426.434 405.085 425.691 405.227 424.843 405.227C423.731 405.227 422.81 404.986 422.081 404.503C421.351 404.02 420.89 403.314 420.696 402.386L422.287 401.989C422.438 402.576 422.725 403.016 423.146 403.31C423.572 403.603 424.128 403.75 424.815 403.75C425.596 403.75 426.217 403.584 426.676 403.253C427.14 402.917 427.372 402.514 427.372 402.045C427.372 401.667 427.239 401.349 426.974 401.094C426.709 400.833 426.302 400.639 425.752 400.511L423.934 400.085C422.935 399.848 422.201 399.482 421.733 398.984C421.269 398.482 421.037 397.855 421.037 397.102C421.037 396.487 421.209 395.942 421.555 395.469C421.905 394.995 422.381 394.624 422.983 394.354C423.589 394.084 424.275 393.949 425.042 393.949C426.122 393.949 426.969 394.186 427.585 394.659C428.205 395.133 428.645 395.758 428.906 396.534ZM434.838 405.256C434.147 405.256 433.519 405.125 432.956 404.865C432.393 404.6 431.945 404.219 431.614 403.722C431.282 403.22 431.116 402.614 431.116 401.903C431.116 401.278 431.24 400.772 431.486 400.384C431.732 399.991 432.061 399.683 432.473 399.46C432.885 399.238 433.339 399.072 433.837 398.963C434.339 398.849 434.843 398.759 435.349 398.693C436.012 398.608 436.55 398.544 436.962 398.501C437.378 398.454 437.681 398.376 437.871 398.267C438.065 398.158 438.162 397.969 438.162 397.699V397.642C438.162 396.941 437.97 396.397 437.587 396.009C437.208 395.62 436.633 395.426 435.861 395.426C435.061 395.426 434.433 395.601 433.979 395.952C433.524 396.302 433.205 396.676 433.02 397.074L431.429 396.506C431.713 395.843 432.092 395.327 432.565 394.957C433.044 394.583 433.564 394.323 434.128 394.176C434.696 394.025 435.255 393.949 435.804 393.949C436.154 393.949 436.557 393.991 437.011 394.077C437.471 394.157 437.913 394.325 438.339 394.581C438.77 394.837 439.128 395.223 439.412 395.739C439.696 396.255 439.838 396.946 439.838 397.812V405H438.162V403.523H438.077C437.963 403.759 437.774 404.013 437.509 404.283C437.243 404.553 436.891 404.782 436.45 404.972C436.01 405.161 435.473 405.256 434.838 405.256ZM435.094 403.75C435.757 403.75 436.315 403.62 436.77 403.359C437.229 403.099 437.575 402.763 437.807 402.351C438.044 401.939 438.162 401.506 438.162 401.051V399.517C438.091 399.602 437.935 399.68 437.693 399.751C437.456 399.818 437.182 399.877 436.869 399.929C436.562 399.976 436.261 400.019 435.967 400.057C435.679 400.09 435.444 400.118 435.264 400.142C434.829 400.199 434.421 400.291 434.043 400.419C433.669 400.542 433.366 400.729 433.134 400.98C432.906 401.226 432.793 401.562 432.793 401.989C432.793 402.571 433.008 403.011 433.439 403.31C433.875 403.603 434.426 403.75 435.094 403.75ZM448.75 405V390.455H453.664C454.806 390.455 455.738 390.661 456.463 391.072C457.192 391.48 457.732 392.031 458.082 392.727C458.432 393.423 458.608 394.2 458.608 395.057C458.608 395.914 458.432 396.693 458.082 397.393C457.736 398.094 457.201 398.653 456.477 399.07C455.752 399.482 454.824 399.688 453.693 399.688H450.17V398.125H453.636C454.417 398.125 455.045 397.99 455.518 397.72C455.992 397.45 456.335 397.086 456.548 396.626C456.766 396.162 456.875 395.639 456.875 395.057C456.875 394.474 456.766 393.954 456.548 393.494C456.335 393.035 455.989 392.675 455.511 392.415C455.033 392.15 454.398 392.017 453.608 392.017H450.511V405H448.75ZM465.674 405.227C464.623 405.227 463.717 404.995 462.954 404.531C462.197 404.062 461.612 403.409 461.2 402.571C460.793 401.728 460.589 400.748 460.589 399.631C460.589 398.513 460.793 397.528 461.2 396.676C461.612 395.819 462.185 395.152 462.919 394.673C463.657 394.19 464.519 393.949 465.504 393.949C466.072 393.949 466.633 394.044 467.187 394.233C467.741 394.422 468.245 394.73 468.7 395.156C469.154 395.578 469.517 396.136 469.787 396.832C470.056 397.528 470.191 398.385 470.191 399.403V400.114H461.782V398.665H468.487C468.487 398.049 468.364 397.5 468.118 397.017C467.876 396.534 467.53 396.153 467.081 395.874C466.636 395.594 466.11 395.455 465.504 395.455C464.836 395.455 464.259 395.62 463.771 395.952C463.288 396.278 462.916 396.705 462.656 397.23C462.395 397.756 462.265 398.319 462.265 398.92V399.886C462.265 400.71 462.407 401.409 462.691 401.982C462.98 402.55 463.38 402.983 463.892 403.281C464.403 403.575 464.997 403.722 465.674 403.722C466.115 403.722 466.512 403.66 466.868 403.537C467.227 403.409 467.538 403.22 467.798 402.969C468.058 402.713 468.26 402.396 468.402 402.017L470.021 402.472C469.85 403.021 469.564 403.504 469.162 403.92C468.759 404.332 468.262 404.654 467.67 404.886C467.078 405.114 466.413 405.227 465.674 405.227ZM472.741 405V394.091H474.36V395.739H474.474C474.673 395.199 475.033 394.761 475.554 394.425C476.074 394.089 476.662 393.92 477.315 393.92C477.438 393.92 477.592 393.923 477.777 393.928C477.961 393.932 478.101 393.939 478.196 393.949V395.653C478.139 395.639 478.009 395.618 477.805 395.589C477.606 395.556 477.395 395.54 477.173 395.54C476.643 395.54 476.169 395.651 475.752 395.874C475.341 396.091 475.014 396.394 474.772 396.783C474.536 397.166 474.417 397.604 474.417 398.097V405H472.741ZM483.393 405.256C482.701 405.256 482.074 405.125 481.511 404.865C480.947 404.6 480.5 404.219 480.168 403.722C479.837 403.22 479.671 402.614 479.671 401.903C479.671 401.278 479.794 400.772 480.04 400.384C480.287 399.991 480.616 399.683 481.028 399.46C481.44 399.238 481.894 399.072 482.391 398.963C482.893 398.849 483.397 398.759 483.904 398.693C484.567 398.608 485.104 398.544 485.516 398.501C485.933 398.454 486.236 398.376 486.425 398.267C486.62 398.158 486.717 397.969 486.717 397.699V397.642C486.717 396.941 486.525 396.397 486.141 396.009C485.763 395.62 485.187 395.426 484.415 395.426C483.615 395.426 482.988 395.601 482.533 395.952C482.079 396.302 481.759 396.676 481.575 397.074L479.984 396.506C480.268 395.843 480.647 395.327 481.12 394.957C481.598 394.583 482.119 394.323 482.683 394.176C483.251 394.025 483.809 393.949 484.359 393.949C484.709 393.949 485.112 393.991 485.566 394.077C486.025 394.157 486.468 394.325 486.894 394.581C487.325 394.837 487.683 395.223 487.967 395.739C488.251 396.255 488.393 396.946 488.393 397.812V405H486.717V403.523H486.631C486.518 403.759 486.328 404.013 486.063 404.283C485.798 404.553 485.445 404.782 485.005 404.972C484.565 405.161 484.027 405.256 483.393 405.256ZM483.648 403.75C484.311 403.75 484.87 403.62 485.325 403.359C485.784 403.099 486.129 402.763 486.362 402.351C486.598 401.939 486.717 401.506 486.717 401.051V399.517C486.646 399.602 486.489 399.68 486.248 399.751C486.011 399.818 485.737 399.877 485.424 399.929C485.116 399.976 484.816 400.019 484.522 400.057C484.233 400.09 483.999 400.118 483.819 400.142C483.383 400.199 482.976 400.291 482.597 400.419C482.223 400.542 481.92 400.729 481.688 400.98C481.461 401.226 481.347 401.562 481.347 401.989C481.347 402.571 481.563 403.011 481.994 403.31C482.429 403.603 482.981 403.75 483.648 403.75ZM493.128 398.438V405H491.452V394.091H493.071V395.795H493.213C493.469 395.241 493.857 394.796 494.378 394.46C494.899 394.119 495.571 393.949 496.395 393.949C497.134 393.949 497.78 394.1 498.334 394.403C498.888 394.702 499.319 395.156 499.627 395.767C499.935 396.373 500.088 397.14 500.088 398.068V405H498.412V398.182C498.412 397.325 498.19 396.657 497.745 396.179C497.3 395.696 496.689 395.455 495.912 395.455C495.377 395.455 494.899 395.571 494.478 395.803C494.061 396.035 493.732 396.373 493.49 396.818C493.249 397.263 493.128 397.803 493.128 398.438ZM507.555 409.318C506.745 409.318 506.049 409.214 505.467 409.006C504.884 408.802 504.399 408.532 504.011 408.196C503.627 407.865 503.322 407.509 503.094 407.131L504.43 406.193C504.581 406.392 504.773 406.619 505.005 406.875C505.237 407.135 505.554 407.36 505.957 407.55C506.364 407.744 506.897 407.841 507.555 407.841C508.435 407.841 509.162 407.628 509.735 407.202C510.308 406.776 510.594 406.108 510.594 405.199V402.983H510.452C510.329 403.182 510.154 403.428 509.927 403.722C509.704 404.01 509.382 404.268 508.961 404.496C508.544 404.718 507.981 404.83 507.271 404.83C506.39 404.83 505.599 404.621 504.898 404.205C504.202 403.788 503.651 403.182 503.244 402.386C502.841 401.591 502.64 400.625 502.64 399.489C502.64 398.371 502.836 397.398 503.229 396.57C503.622 395.736 504.169 395.092 504.87 394.638C505.571 394.179 506.38 393.949 507.299 393.949C508.009 393.949 508.573 394.067 508.989 394.304C509.411 394.536 509.733 394.801 509.955 395.099C510.183 395.393 510.358 395.634 510.481 395.824H510.651V394.091H512.271V405.312C512.271 406.25 512.058 407.012 511.631 407.599C511.21 408.191 510.642 408.625 509.927 408.899C509.217 409.179 508.426 409.318 507.555 409.318ZM507.498 403.324C508.17 403.324 508.738 403.17 509.202 402.862C509.666 402.554 510.019 402.112 510.261 401.534C510.502 400.956 510.623 400.265 510.623 399.46C510.623 398.674 510.504 397.981 510.268 397.379C510.031 396.778 509.681 396.307 509.217 395.966C508.753 395.625 508.18 395.455 507.498 395.455C506.788 395.455 506.196 395.634 505.722 395.994C505.254 396.354 504.901 396.837 504.664 397.443C504.432 398.049 504.316 398.722 504.316 399.46C504.316 400.218 504.434 400.888 504.671 401.47C504.913 402.048 505.268 402.502 505.737 402.834C506.21 403.161 506.797 403.324 507.498 403.324ZM516.901 401.023L516.873 398.949H517.214L521.987 394.091H524.06L518.975 399.233H518.833L516.901 401.023ZM515.339 405V390.455H517.015V405H515.339ZM522.271 405L518.009 399.602L519.202 398.438L524.401 405H522.271ZM529.428 405.256C528.737 405.256 528.109 405.125 527.546 404.865C526.982 404.6 526.535 404.219 526.203 403.722C525.872 403.22 525.706 402.614 525.706 401.903C525.706 401.278 525.829 400.772 526.076 400.384C526.322 399.991 526.651 399.683 527.063 399.46C527.475 399.238 527.929 399.072 528.426 398.963C528.928 398.849 529.433 398.759 529.939 398.693C530.602 398.608 531.14 398.544 531.551 398.501C531.968 398.454 532.271 398.376 532.461 398.267C532.655 398.158 532.752 397.969 532.752 397.699V397.642C532.752 396.941 532.56 396.397 532.176 396.009C531.798 395.62 531.222 395.426 530.451 395.426C529.65 395.426 529.023 395.601 528.569 395.952C528.114 396.302 527.794 396.676 527.61 397.074L526.019 396.506C526.303 395.843 526.682 395.327 527.155 394.957C527.633 394.583 528.154 394.323 528.718 394.176C529.286 394.025 529.845 393.949 530.394 393.949C530.744 393.949 531.147 393.991 531.601 394.077C532.06 394.157 532.503 394.325 532.929 394.581C533.36 394.837 533.718 395.223 534.002 395.739C534.286 396.255 534.428 396.946 534.428 397.812V405H532.752V403.523H532.667C532.553 403.759 532.364 404.013 532.098 404.283C531.833 404.553 531.48 404.782 531.04 404.972C530.6 405.161 530.062 405.256 529.428 405.256ZM529.684 403.75C530.346 403.75 530.905 403.62 531.36 403.359C531.819 403.099 532.165 402.763 532.397 402.351C532.633 401.939 532.752 401.506 532.752 401.051V399.517C532.681 399.602 532.525 399.68 532.283 399.751C532.046 399.818 531.772 399.877 531.459 399.929C531.151 399.976 530.851 400.019 530.557 400.057C530.268 400.09 530.034 400.118 529.854 400.142C529.418 400.199 529.011 400.291 528.632 400.419C528.258 400.542 527.955 400.729 527.723 400.98C527.496 401.226 527.382 401.562 527.382 401.989C527.382 402.571 527.598 403.011 528.029 403.31C528.464 403.603 529.016 403.75 529.684 403.75ZM542.232 394.091V395.511H536.578V394.091H542.232ZM538.226 391.477H539.902V401.875C539.902 402.348 539.971 402.704 540.108 402.94C540.25 403.172 540.43 403.329 540.648 403.409C540.87 403.485 541.105 403.523 541.351 403.523C541.536 403.523 541.687 403.513 541.805 403.494C541.924 403.471 542.018 403.452 542.089 403.438L542.43 404.943C542.317 404.986 542.158 405.028 541.955 405.071C541.751 405.118 541.493 405.142 541.18 405.142C540.707 405.142 540.243 405.04 539.788 404.837C539.339 404.633 538.964 404.323 538.666 403.906C538.373 403.49 538.226 402.964 538.226 402.33V391.477ZM550.605 405V390.455H552.366V403.438H559.128V405H550.605ZM568.503 400.54V394.091H570.179V405H568.503V403.153H568.389C568.134 403.707 567.736 404.179 567.196 404.567C566.656 404.95 565.974 405.142 565.151 405.142C564.469 405.142 563.863 404.993 563.332 404.695C562.802 404.392 562.385 403.937 562.082 403.331C561.779 402.72 561.628 401.951 561.628 401.023V394.091H563.304V400.909C563.304 401.705 563.527 402.339 563.972 402.812C564.421 403.286 564.994 403.523 565.69 403.523C566.107 403.523 566.531 403.416 566.962 403.203C567.397 402.99 567.762 402.663 568.055 402.223C568.354 401.783 568.503 401.222 568.503 400.54ZM574.925 398.438V405H573.249V394.091H574.868V395.795H575.01C575.266 395.241 575.654 394.796 576.175 394.46C576.696 394.119 577.368 393.949 578.192 393.949C578.931 393.949 579.577 394.1 580.131 394.403C580.685 394.702 581.116 395.156 581.424 395.767C581.731 396.373 581.885 397.14 581.885 398.068V405H580.209V398.182C580.209 397.325 579.987 396.657 579.542 396.179C579.096 395.696 578.486 395.455 577.709 395.455C577.174 395.455 576.696 395.571 576.275 395.803C575.858 396.035 575.529 396.373 575.287 396.818C575.046 397.263 574.925 397.803 574.925 398.438ZM588.158 405.256C587.467 405.256 586.84 405.125 586.276 404.865C585.713 404.6 585.265 404.219 584.934 403.722C584.603 403.22 584.437 402.614 584.437 401.903C584.437 401.278 584.56 400.772 584.806 400.384C585.052 399.991 585.381 399.683 585.793 399.46C586.205 399.238 586.66 399.072 587.157 398.963C587.659 398.849 588.163 398.759 588.67 398.693C589.333 398.608 589.87 398.544 590.282 398.501C590.699 398.454 591.002 398.376 591.191 398.267C591.385 398.158 591.482 397.969 591.482 397.699V397.642C591.482 396.941 591.29 396.397 590.907 396.009C590.528 395.62 589.953 395.426 589.181 395.426C588.381 395.426 587.754 395.601 587.299 395.952C586.844 396.302 586.525 396.676 586.34 397.074L584.749 396.506C585.033 395.843 585.412 395.327 585.886 394.957C586.364 394.583 586.885 394.323 587.448 394.176C588.016 394.025 588.575 393.949 589.124 393.949C589.475 393.949 589.877 393.991 590.332 394.077C590.791 394.157 591.234 394.325 591.66 394.581C592.091 394.837 592.448 395.223 592.732 395.739C593.016 396.255 593.158 396.946 593.158 397.812V405H591.482V403.523H591.397C591.283 403.759 591.094 404.013 590.829 404.283C590.564 404.553 590.211 404.782 589.771 404.972C589.33 405.161 588.793 405.256 588.158 405.256ZM588.414 403.75C589.077 403.75 589.636 403.62 590.09 403.359C590.549 403.099 590.895 402.763 591.127 402.351C591.364 401.939 591.482 401.506 591.482 401.051V399.517C591.411 399.602 591.255 399.68 591.013 399.751C590.777 399.818 590.502 399.877 590.19 399.929C589.882 399.976 589.581 400.019 589.288 400.057C588.999 400.09 588.764 400.118 588.585 400.142C588.149 400.199 587.742 400.291 587.363 400.419C586.989 400.542 586.686 400.729 586.454 400.98C586.227 401.226 586.113 401.562 586.113 401.989C586.113 402.571 586.328 403.011 586.759 403.31C587.195 403.603 587.746 403.75 588.414 403.75ZM597.78 401.023L597.752 398.949H598.093L602.865 394.091H604.939L599.854 399.233H599.712L597.78 401.023ZM596.218 405V390.455H597.894V405H596.218ZM603.15 405L598.888 399.602L600.081 398.438L605.28 405H603.15ZM613.318 397.727C613.318 395.937 613.55 394.292 614.014 392.791C614.483 391.286 615.151 389.901 616.017 388.636H617.494C617.153 389.105 616.834 389.683 616.536 390.369C616.242 391.051 615.984 391.802 615.761 392.621C615.539 393.435 615.364 394.278 615.236 395.149C615.113 396.02 615.051 396.88 615.051 397.727C615.051 398.854 615.16 399.998 615.378 401.158C615.596 402.318 615.889 403.395 616.259 404.389C616.628 405.384 617.04 406.193 617.494 406.818H616.017C615.151 405.554 614.483 404.171 614.014 402.67C613.55 401.165 613.318 399.517 613.318 397.727ZM619.939 405V403.722L624.74 398.466C625.304 397.85 625.768 397.315 626.132 396.861C626.497 396.402 626.767 395.971 626.942 395.568C627.122 395.161 627.212 394.735 627.212 394.29C627.212 393.778 627.089 393.336 626.843 392.962C626.601 392.588 626.27 392.299 625.848 392.095C625.427 391.892 624.953 391.79 624.428 391.79C623.869 391.79 623.382 391.906 622.965 392.138C622.553 392.365 622.233 392.685 622.006 393.097C621.783 393.509 621.672 393.991 621.672 394.545H619.996C619.996 393.693 620.193 392.945 620.586 392.301C620.979 391.657 621.514 391.155 622.191 390.795C622.873 390.436 623.637 390.256 624.485 390.256C625.337 390.256 626.092 390.436 626.75 390.795C627.408 391.155 627.925 391.641 628.299 392.251C628.673 392.862 628.86 393.542 628.86 394.29C628.86 394.825 628.763 395.348 628.569 395.859C628.379 396.366 628.048 396.932 627.574 397.557C627.105 398.177 626.454 398.935 625.621 399.83L622.354 403.324V403.438H629.115V405H619.939ZM636.793 405.199C635.723 405.199 634.811 404.908 634.059 404.325C633.306 403.738 632.73 402.888 632.333 401.776C631.935 400.658 631.736 399.309 631.736 397.727C631.736 396.155 631.935 394.813 632.333 393.7C632.735 392.583 633.313 391.731 634.066 391.143C634.823 390.552 635.732 390.256 636.793 390.256C637.854 390.256 638.76 390.552 639.513 391.143C640.271 391.731 640.848 392.583 641.246 393.7C641.649 394.813 641.85 396.155 641.85 397.727C641.85 399.309 641.651 400.658 641.253 401.776C640.855 402.888 640.28 403.738 639.527 404.325C638.775 404.908 637.863 405.199 636.793 405.199ZM636.793 403.636C637.854 403.636 638.677 403.125 639.265 402.102C639.852 401.08 640.145 399.621 640.145 397.727C640.145 396.468 640.01 395.395 639.74 394.51C639.475 393.625 639.092 392.95 638.59 392.486C638.093 392.022 637.494 391.79 636.793 391.79C635.742 391.79 634.92 392.308 634.328 393.345C633.737 394.377 633.441 395.838 633.441 397.727C633.441 398.987 633.573 400.057 633.838 400.938C634.104 401.818 634.485 402.488 634.982 402.947C635.484 403.407 636.087 403.636 636.793 403.636ZM644.549 405V403.722L649.35 398.466C649.913 397.85 650.377 397.315 650.742 396.861C651.106 396.402 651.376 395.971 651.551 395.568C651.731 395.161 651.821 394.735 651.821 394.29C651.821 393.778 651.698 393.336 651.452 392.962C651.211 392.588 650.879 392.299 650.458 392.095C650.036 391.892 649.563 391.79 649.037 391.79C648.479 391.79 647.991 391.906 647.574 392.138C647.162 392.365 646.843 392.685 646.615 393.097C646.393 393.509 646.282 393.991 646.282 394.545H644.605C644.605 393.693 644.802 392.945 645.195 392.301C645.588 391.657 646.123 391.155 646.8 390.795C647.482 390.436 648.247 390.256 649.094 390.256C649.946 390.256 650.702 390.436 651.36 390.795C652.018 391.155 652.534 391.641 652.908 392.251C653.282 392.862 653.469 393.542 653.469 394.29C653.469 394.825 653.372 395.348 653.178 395.859C652.989 396.366 652.657 396.932 652.184 397.557C651.715 398.177 651.064 398.935 650.23 399.83L646.963 403.324V403.438H653.725V405H644.549ZM661.573 405.199C660.635 405.199 659.8 405.038 659.066 404.716C658.337 404.394 657.757 403.946 657.326 403.374C656.9 402.796 656.667 402.126 656.63 401.364H658.419C658.457 401.832 658.618 402.237 658.902 402.578C659.186 402.914 659.558 403.175 660.017 403.359C660.477 403.544 660.986 403.636 661.544 403.636C662.169 403.636 662.723 403.527 663.206 403.31C663.689 403.092 664.068 402.789 664.343 402.401C664.617 402.012 664.755 401.562 664.755 401.051C664.755 400.516 664.622 400.045 664.357 399.638C664.092 399.226 663.703 398.904 663.192 398.672C662.681 398.44 662.056 398.324 661.317 398.324H660.152V396.761H661.317C661.895 396.761 662.401 396.657 662.837 396.449C663.277 396.241 663.621 395.947 663.867 395.568C664.118 395.189 664.243 394.744 664.243 394.233C664.243 393.741 664.134 393.312 663.917 392.947C663.699 392.583 663.391 392.299 662.993 392.095C662.6 391.892 662.136 391.79 661.601 391.79C661.099 391.79 660.626 391.882 660.181 392.067C659.74 392.247 659.381 392.509 659.101 392.855C658.822 393.196 658.67 393.608 658.647 394.091H656.942C656.971 393.329 657.2 392.661 657.631 392.088C658.062 391.51 658.625 391.061 659.321 390.739C660.022 390.417 660.792 390.256 661.63 390.256C662.529 390.256 663.301 390.438 663.945 390.803C664.589 391.162 665.084 391.638 665.429 392.23C665.775 392.822 665.948 393.461 665.948 394.148C665.948 394.967 665.732 395.665 665.301 396.243C664.875 396.821 664.295 397.221 663.561 397.443V397.557C664.48 397.708 665.197 398.099 665.713 398.729C666.23 399.354 666.488 400.128 666.488 401.051C666.488 401.842 666.272 402.552 665.841 403.182C665.415 403.807 664.833 404.299 664.094 404.659C663.355 405.019 662.515 405.199 661.573 405.199ZM675.671 396.946V398.509H669.307V396.946H675.671ZM677.908 405V403.722L682.709 398.466C683.273 397.85 683.737 397.315 684.101 396.861C684.466 396.402 684.736 395.971 684.911 395.568C685.091 395.161 685.181 394.735 685.181 394.29C685.181 393.778 685.058 393.336 684.811 392.962C684.57 392.588 684.239 392.299 683.817 392.095C683.396 391.892 682.922 391.79 682.397 391.79C681.838 391.79 681.35 391.906 680.934 392.138C680.522 392.365 680.202 392.685 679.975 393.097C679.752 393.509 679.641 393.991 679.641 394.545H677.965C677.965 393.693 678.161 392.945 678.554 392.301C678.947 391.657 679.482 391.155 680.159 390.795C680.841 390.436 681.606 390.256 682.453 390.256C683.306 390.256 684.061 390.436 684.719 390.795C685.377 391.155 685.893 391.641 686.267 392.251C686.641 392.862 686.828 393.542 686.828 394.29C686.828 394.825 686.731 395.348 686.537 395.859C686.348 396.366 686.016 396.932 685.543 397.557C685.074 398.177 684.423 398.935 683.59 399.83L680.323 403.324V403.438H687.084V405H677.908ZM694.762 405.199C693.692 405.199 692.78 404.908 692.027 404.325C691.275 403.738 690.699 402.888 690.301 401.776C689.904 400.658 689.705 399.309 689.705 397.727C689.705 396.155 689.904 394.813 690.301 393.7C690.704 392.583 691.282 391.731 692.034 391.143C692.792 390.552 693.701 390.256 694.762 390.256C695.822 390.256 696.729 390.552 697.482 391.143C698.239 391.731 698.817 392.583 699.215 393.7C699.617 394.813 699.819 396.155 699.819 397.727C699.819 399.309 699.62 400.658 699.222 401.776C698.824 402.888 698.249 403.738 697.496 404.325C696.743 404.908 695.832 405.199 694.762 405.199ZM694.762 403.636C695.822 403.636 696.646 403.125 697.233 402.102C697.82 401.08 698.114 399.621 698.114 397.727C698.114 396.468 697.979 395.395 697.709 394.51C697.444 393.625 697.06 392.95 696.559 392.486C696.061 392.022 695.462 391.79 694.762 391.79C693.711 391.79 692.889 392.308 692.297 393.345C691.705 394.377 691.409 395.838 691.409 397.727C691.409 398.987 691.542 400.057 691.807 400.938C692.072 401.818 692.453 402.488 692.951 402.947C693.453 403.407 694.056 403.636 694.762 403.636ZM702.517 405V403.722L707.319 398.466C707.882 397.85 708.346 397.315 708.711 396.861C709.075 396.402 709.345 395.971 709.52 395.568C709.7 395.161 709.79 394.735 709.79 394.29C709.79 393.778 709.667 393.336 709.421 392.962C709.179 392.588 708.848 392.299 708.426 392.095C708.005 391.892 707.532 391.79 707.006 391.79C706.447 391.79 705.96 391.906 705.543 392.138C705.131 392.365 704.811 392.685 704.584 393.097C704.362 393.509 704.25 393.991 704.25 394.545H702.574C702.574 393.693 702.771 392.945 703.164 392.301C703.557 391.657 704.092 391.155 704.769 390.795C705.451 390.436 706.215 390.256 707.063 390.256C707.915 390.256 708.67 390.436 709.328 390.795C709.987 391.155 710.503 391.641 710.877 392.251C711.251 392.862 711.438 393.542 711.438 394.29C711.438 394.825 711.341 395.348 711.147 395.859C710.957 396.366 710.626 396.932 710.152 397.557C709.684 398.177 709.033 398.935 708.199 399.83L704.932 403.324V403.438H711.694V405H702.517ZM719.456 405.199C718.86 405.189 718.263 405.076 717.667 404.858C717.07 404.64 716.525 404.273 716.033 403.757C715.541 403.236 715.145 402.533 714.847 401.648C714.549 400.758 714.4 399.64 714.4 398.295C714.4 397.008 714.52 395.866 714.762 394.872C715.003 393.873 715.354 393.033 715.813 392.351C716.272 391.664 716.826 391.143 717.475 390.788C718.128 390.433 718.864 390.256 719.684 390.256C720.498 390.256 721.222 390.419 721.857 390.746C722.496 391.068 723.017 391.518 723.419 392.095C723.822 392.673 724.082 393.338 724.201 394.091H722.468C722.307 393.437 721.994 392.895 721.53 392.464C721.066 392.034 720.451 391.818 719.684 391.818C718.557 391.818 717.669 392.308 717.02 393.288C716.376 394.268 716.052 395.644 716.047 397.415H716.161C716.426 397.012 716.741 396.669 717.105 396.385C717.475 396.096 717.882 395.874 718.327 395.717C718.772 395.561 719.243 395.483 719.74 395.483C720.574 395.483 721.336 395.691 722.027 396.108C722.719 396.52 723.273 397.09 723.689 397.82C724.106 398.544 724.314 399.375 724.314 400.312C724.314 401.212 724.113 402.036 723.711 402.784C723.308 403.527 722.742 404.119 722.013 404.56C721.289 404.995 720.436 405.208 719.456 405.199ZM719.456 403.636C720.053 403.636 720.588 403.487 721.061 403.189C721.54 402.891 721.916 402.491 722.191 401.989C722.47 401.487 722.61 400.928 722.61 400.312C722.61 399.711 722.475 399.164 722.205 398.672C721.94 398.175 721.573 397.779 721.104 397.486C720.64 397.192 720.11 397.045 719.513 397.045C719.063 397.045 718.644 397.135 718.256 397.315C717.868 397.491 717.527 397.732 717.233 398.04C716.944 398.348 716.717 398.7 716.551 399.098C716.386 399.491 716.303 399.905 716.303 400.341C716.303 400.919 716.438 401.458 716.708 401.96C716.982 402.462 717.356 402.867 717.83 403.175C718.308 403.482 718.85 403.636 719.456 403.636ZM730.715 397.727C730.715 399.517 730.481 401.165 730.012 402.67C729.548 404.171 728.883 405.554 728.016 406.818H726.539C726.88 406.349 727.197 405.772 727.491 405.085C727.789 404.403 728.049 403.655 728.272 402.841C728.495 402.022 728.667 401.177 728.79 400.305C728.918 399.429 728.982 398.57 728.982 397.727C728.982 396.6 728.873 395.457 728.656 394.297C728.438 393.137 728.144 392.06 727.775 391.065C727.406 390.071 726.994 389.261 726.539 388.636H728.016C728.883 389.901 729.548 391.286 730.012 392.791C730.481 394.292 730.715 395.937 730.715 397.727Z" fill="black"/>
</g>
<g filter="url(#filter4_d_896_8399)">
<path d="M719.002 554.501V512.372C719.022 511.696 719.245 511.054 719.625 510.58C720.005 510.106 720.513 509.835 721.045 509.822C721.569 509.836 722.068 510.11 722.435 510.587C722.802 511.064 723.007 511.705 723.007 512.372V554.45C723.007 555.126 722.796 555.775 722.421 556.253C722.045 556.731 721.536 557 721.005 557C720.483 556.987 719.986 556.721 719.613 556.257C719.241 555.792 719.022 555.164 719.002 554.501Z" fill="#F7F7F7"/>
<path d="M703.501 526.398C703.504 525.719 703.703 525.065 704.062 524.562L719.723 504.773C719.903 504.529 720.12 504.334 720.361 504.201C720.602 504.069 720.862 504 721.125 504C721.388 504 721.648 504.069 721.889 504.201C722.13 504.334 722.347 504.529 722.527 504.773L737.908 524.562C738.095 524.799 738.244 525.081 738.346 525.392C738.448 525.702 738.5 526.036 738.5 526.372C738.5 526.709 738.448 527.042 738.346 527.353C738.244 527.664 738.095 527.946 737.908 528.183C737.526 528.654 737.017 528.917 736.486 528.917C735.955 528.917 735.445 528.654 735.064 528.183L720.965 510.077L706.745 528.081C706.364 528.552 705.854 528.815 705.323 528.815C704.793 528.815 704.283 528.552 703.902 528.081C703.627 527.591 703.486 527 703.501 526.398Z" fill="#F7F7F7"/>
</g>
<g filter="url(#filter5_d_896_8399)">
<rect x="231.5" y="621" width="979" height="117" rx="20" fill="#F7F7F7" shape-rendering="crispEdges"/>
<path d="M270.625 677.906H266.875C265.383 677.906 263.952 678.41 262.898 679.307C261.843 680.203 261.25 681.419 261.25 682.688V698.625C261.25 699.048 261.448 699.453 261.799 699.752C262.151 700.051 262.628 700.219 263.125 700.219H270.625V677.906Z" fill="#304046"/>
<path d="M289.375 684.281H285.625V700.219H289.375V684.281Z" fill="#304046"/>
<path d="M300.625 677.906V665.156C300.623 664.894 300.546 664.636 300.398 664.405C300.251 664.174 300.039 663.978 299.781 663.834L288.531 657.459C288.225 657.287 287.867 657.196 287.5 657.196C287.133 657.196 286.775 657.287 286.469 657.459L275.219 663.834C274.961 663.978 274.749 664.174 274.602 664.405C274.454 664.636 274.377 664.894 274.375 665.156V700.219H281.875V682.688C281.875 682.265 282.073 681.86 282.424 681.561C282.776 681.262 283.253 681.094 283.75 681.094H291.25C291.747 681.094 292.224 681.262 292.576 681.561C292.927 681.86 293.125 682.265 293.125 682.688V700.219H300.625V677.906ZM291.25 676.313H283.75C283.253 676.313 282.776 676.145 282.424 675.846C282.073 675.547 281.875 675.142 281.875 674.719C281.875 674.296 282.073 673.891 282.424 673.592C282.776 673.293 283.253 673.125 283.75 673.125H291.25C291.747 673.125 292.224 673.293 292.576 673.592C292.927 673.891 293.125 674.296 293.125 674.719C293.125 675.142 292.927 675.547 292.576 675.846C292.224 676.145 291.747 676.313 291.25 676.313ZM291.25 669.938H283.75C283.253 669.938 282.776 669.77 282.424 669.471C282.073 669.172 281.875 668.767 281.875 668.344C281.875 667.921 282.073 667.516 282.424 667.217C282.776 666.918 283.253 666.75 283.75 666.75H291.25C291.747 666.75 292.224 666.918 292.576 667.217C292.927 667.516 293.125 667.921 293.125 668.344C293.125 668.767 292.927 669.172 292.576 669.471C292.224 669.77 291.747 669.938 291.25 669.938Z" fill="#304046"/>
<path d="M308.125 677.906H304.375V700.219H311.875C312.372 700.219 312.849 700.051 313.201 699.752C313.552 699.453 313.75 699.048 313.75 698.625V682.688C313.75 681.419 313.157 680.203 312.102 679.307C311.048 678.41 309.617 677.906 308.125 677.906Z" fill="#304046"/>
<path d="M362.486 663.565C362.418 662.878 362.125 662.344 361.608 661.963C361.091 661.582 360.389 661.392 359.503 661.392C358.901 661.392 358.392 661.477 357.977 661.648C357.563 661.812 357.244 662.043 357.023 662.338C356.807 662.634 356.699 662.969 356.699 663.344C356.688 663.656 356.753 663.929 356.895 664.162C357.043 664.395 357.244 664.597 357.5 664.767C357.756 664.932 358.051 665.077 358.386 665.202C358.722 665.321 359.08 665.423 359.46 665.509L361.028 665.884C361.79 666.054 362.489 666.281 363.125 666.565C363.761 666.849 364.313 667.199 364.778 667.614C365.244 668.028 365.605 668.517 365.861 669.08C366.122 669.642 366.256 670.287 366.261 671.014C366.256 672.082 365.983 673.009 365.443 673.793C364.909 674.571 364.136 675.176 363.125 675.608C362.119 676.034 360.906 676.247 359.486 676.247C358.077 676.247 356.849 676.031 355.804 675.599C354.764 675.168 353.952 674.528 353.366 673.682C352.787 672.83 352.483 671.776 352.455 670.52H356.026C356.065 671.105 356.233 671.594 356.528 671.986C356.83 672.372 357.23 672.665 357.73 672.864C358.236 673.057 358.807 673.153 359.443 673.153C360.068 673.153 360.611 673.062 361.071 672.881C361.537 672.699 361.898 672.446 362.153 672.122C362.409 671.798 362.537 671.426 362.537 671.006C362.537 670.614 362.42 670.284 362.188 670.017C361.96 669.75 361.625 669.523 361.182 669.335C360.744 669.148 360.207 668.977 359.571 668.824L357.67 668.347C356.199 667.989 355.037 667.429 354.185 666.668C353.332 665.906 352.909 664.881 352.915 663.591C352.909 662.534 353.19 661.611 353.759 660.821C354.332 660.031 355.119 659.415 356.119 658.972C357.119 658.528 358.256 658.307 359.528 658.307C360.824 658.307 361.955 658.528 362.92 658.972C363.892 659.415 364.648 660.031 365.188 660.821C365.727 661.611 366.006 662.526 366.023 663.565H362.486ZM368.744 658.545H373.295L378.102 670.273H378.306L383.113 658.545H387.664V676H384.085V664.639H383.94L379.423 675.915H376.985L372.468 664.597H372.323V676H368.744V658.545ZM390.705 676V658.545H397.591C398.915 658.545 400.043 658.798 400.974 659.304C401.906 659.804 402.616 660.5 403.105 661.392C403.599 662.278 403.847 663.301 403.847 664.46C403.847 665.619 403.597 666.642 403.097 667.528C402.597 668.415 401.872 669.105 400.923 669.599C399.98 670.094 398.838 670.341 397.497 670.341H393.108V667.384H396.901C397.611 667.384 398.196 667.261 398.656 667.017C399.122 666.767 399.469 666.423 399.696 665.986C399.929 665.543 400.045 665.034 400.045 664.46C400.045 663.881 399.929 663.375 399.696 662.943C399.469 662.506 399.122 662.168 398.656 661.929C398.19 661.685 397.599 661.562 396.884 661.562H394.395V676H390.705ZM411.798 676V658.545H418.685C420.009 658.545 421.136 658.798 422.068 659.304C423 659.804 423.71 660.5 424.199 661.392C424.693 662.278 424.94 663.301 424.94 664.46C424.94 665.619 424.69 666.642 424.19 667.528C423.69 668.415 422.966 669.105 422.017 669.599C421.074 670.094 419.932 670.341 418.591 670.341H414.202V667.384H417.994C418.705 667.384 419.29 667.261 419.75 667.017C420.216 666.767 420.563 666.423 420.79 665.986C421.023 665.543 421.139 665.034 421.139 664.46C421.139 663.881 421.023 663.375 420.79 662.943C420.563 662.506 420.216 662.168 419.75 661.929C419.284 661.685 418.693 661.562 417.977 661.562H415.489V676H411.798ZM430.651 676.247C429.815 676.247 429.071 676.102 428.418 675.812C427.764 675.517 427.247 675.082 426.866 674.509C426.491 673.929 426.304 673.207 426.304 672.344C426.304 671.616 426.438 671.006 426.705 670.511C426.972 670.017 427.335 669.619 427.795 669.318C428.256 669.017 428.778 668.79 429.364 668.636C429.955 668.483 430.574 668.375 431.222 668.312C431.983 668.233 432.597 668.159 433.062 668.091C433.528 668.017 433.866 667.909 434.077 667.767C434.287 667.625 434.392 667.415 434.392 667.136V667.085C434.392 666.545 434.222 666.128 433.881 665.832C433.545 665.537 433.068 665.389 432.449 665.389C431.795 665.389 431.276 665.534 430.889 665.824C430.503 666.108 430.247 666.466 430.122 666.898L426.764 666.625C426.935 665.83 427.27 665.142 427.77 664.562C428.27 663.977 428.915 663.528 429.705 663.216C430.5 662.898 431.42 662.739 432.466 662.739C433.193 662.739 433.889 662.824 434.554 662.994C435.224 663.165 435.818 663.429 436.335 663.787C436.858 664.145 437.27 664.605 437.571 665.168C437.872 665.724 438.023 666.392 438.023 667.17V676H434.58V674.185H434.477C434.267 674.594 433.986 674.955 433.634 675.267C433.281 675.574 432.858 675.815 432.364 675.991C431.869 676.162 431.298 676.247 430.651 676.247ZM431.69 673.741C432.224 673.741 432.696 673.636 433.105 673.426C433.514 673.21 433.835 672.92 434.068 672.557C434.301 672.193 434.418 671.781 434.418 671.321V669.932C434.304 670.006 434.148 670.074 433.949 670.136C433.756 670.193 433.537 670.247 433.293 670.298C433.048 670.344 432.804 670.386 432.56 670.426C432.315 670.46 432.094 670.491 431.895 670.52C431.469 670.582 431.097 670.682 430.778 670.818C430.46 670.955 430.213 671.139 430.037 671.372C429.861 671.599 429.773 671.884 429.773 672.224C429.773 672.719 429.952 673.097 430.31 673.358C430.673 673.614 431.134 673.741 431.69 673.741ZM444.47 668.432V676H440.839V662.909H444.3V665.219H444.453C444.743 664.457 445.229 663.855 445.911 663.412C446.592 662.963 447.419 662.739 448.391 662.739C449.3 662.739 450.092 662.938 450.768 663.335C451.445 663.733 451.97 664.301 452.345 665.04C452.72 665.773 452.908 666.648 452.908 667.665V676H449.277V668.312C449.283 667.511 449.078 666.886 448.663 666.438C448.249 665.983 447.678 665.756 446.95 665.756C446.462 665.756 446.03 665.861 445.655 666.071C445.286 666.281 444.996 666.588 444.786 666.991C444.581 667.389 444.476 667.869 444.47 668.432ZM460.593 676.213C459.599 676.213 458.698 675.957 457.891 675.446C457.09 674.929 456.454 674.17 455.982 673.17C455.516 672.165 455.283 670.932 455.283 669.472C455.283 667.972 455.525 666.724 456.008 665.73C456.491 664.73 457.133 663.983 457.934 663.489C458.741 662.989 459.624 662.739 460.585 662.739C461.317 662.739 461.928 662.864 462.417 663.114C462.911 663.358 463.309 663.665 463.61 664.034C463.917 664.398 464.15 664.756 464.309 665.108H464.42V658.545H468.042V676H464.462V673.903H464.309C464.138 674.267 463.897 674.628 463.585 674.986C463.278 675.338 462.877 675.631 462.383 675.864C461.894 676.097 461.298 676.213 460.593 676.213ZM461.744 673.324C462.329 673.324 462.823 673.165 463.227 672.847C463.636 672.523 463.948 672.071 464.164 671.491C464.386 670.912 464.496 670.233 464.496 669.455C464.496 668.676 464.388 668 464.173 667.426C463.957 666.852 463.644 666.409 463.235 666.097C462.826 665.784 462.329 665.628 461.744 665.628C461.147 665.628 460.644 665.79 460.235 666.114C459.826 666.437 459.516 666.886 459.306 667.46C459.096 668.034 458.991 668.699 458.991 669.455C458.991 670.216 459.096 670.889 459.306 671.474C459.522 672.054 459.832 672.509 460.235 672.838C460.644 673.162 461.147 673.324 461.744 673.324ZM479.422 670.426V662.909H483.053V676H479.567V673.622H479.43C479.135 674.389 478.643 675.006 477.956 675.472C477.274 675.937 476.442 676.17 475.459 676.17C474.584 676.17 473.814 675.972 473.149 675.574C472.484 675.176 471.964 674.611 471.589 673.878C471.22 673.145 471.033 672.267 471.027 671.244V662.909H474.658V670.597C474.663 671.369 474.871 671.98 475.28 672.429C475.689 672.878 476.237 673.102 476.925 673.102C477.362 673.102 477.771 673.003 478.152 672.804C478.533 672.599 478.839 672.298 479.072 671.901C479.311 671.503 479.428 671.011 479.422 670.426ZM501.048 663.565C500.98 662.878 500.688 662.344 500.17 661.963C499.653 661.582 498.952 661.392 498.065 661.392C497.463 661.392 496.955 661.477 496.54 661.648C496.125 661.812 495.807 662.043 495.585 662.338C495.369 662.634 495.261 662.969 495.261 663.344C495.25 663.656 495.315 663.929 495.457 664.162C495.605 664.395 495.807 664.597 496.062 664.767C496.318 664.932 496.614 665.077 496.949 665.202C497.284 665.321 497.642 665.423 498.023 665.509L499.591 665.884C500.352 666.054 501.051 666.281 501.688 666.565C502.324 666.849 502.875 667.199 503.341 667.614C503.807 668.028 504.168 668.517 504.423 669.08C504.685 669.642 504.818 670.287 504.824 671.014C504.818 672.082 504.545 673.009 504.006 673.793C503.472 674.571 502.699 675.176 501.688 675.608C500.682 676.034 499.469 676.247 498.048 676.247C496.639 676.247 495.412 676.031 494.366 675.599C493.327 675.168 492.514 674.528 491.929 673.682C491.349 672.83 491.045 671.776 491.017 670.52H494.588C494.628 671.105 494.795 671.594 495.091 671.986C495.392 672.372 495.793 672.665 496.293 672.864C496.798 673.057 497.369 673.153 498.006 673.153C498.631 673.153 499.173 673.062 499.634 672.881C500.099 672.699 500.46 672.446 500.716 672.122C500.972 671.798 501.099 671.426 501.099 671.006C501.099 670.614 500.983 670.284 500.75 670.017C500.523 669.75 500.188 669.523 499.744 669.335C499.307 669.148 498.77 668.977 498.134 668.824L496.233 668.347C494.761 667.989 493.599 667.429 492.747 666.668C491.895 665.906 491.472 664.881 491.477 663.591C491.472 662.534 491.753 661.611 492.321 660.821C492.895 660.031 493.682 659.415 494.682 658.972C495.682 658.528 496.818 658.307 498.091 658.307C499.386 658.307 500.517 658.528 501.483 658.972C502.455 659.415 503.21 660.031 503.75 660.821C504.29 661.611 504.568 662.526 504.585 663.565H501.048ZM507.238 676V662.909H510.869V676H507.238ZM509.062 661.222C508.522 661.222 508.059 661.043 507.673 660.685C507.292 660.321 507.102 659.886 507.102 659.381C507.102 658.881 507.292 658.452 507.673 658.094C508.059 657.73 508.522 657.548 509.062 657.548C509.602 657.548 510.062 657.73 510.442 658.094C510.829 658.452 511.022 658.881 511.022 659.381C511.022 659.886 510.829 660.321 510.442 660.685C510.062 661.043 509.602 661.222 509.062 661.222ZM524.669 666.642L521.345 666.847C521.288 666.562 521.166 666.307 520.979 666.08C520.791 665.847 520.544 665.662 520.237 665.526C519.936 665.384 519.575 665.312 519.155 665.312C518.592 665.312 518.118 665.432 517.732 665.67C517.345 665.903 517.152 666.216 517.152 666.608C517.152 666.92 517.277 667.185 517.527 667.401C517.777 667.616 518.206 667.79 518.814 667.92L521.183 668.398C522.456 668.659 523.405 669.08 524.03 669.659C524.655 670.239 524.967 671 524.967 671.943C524.967 672.801 524.714 673.554 524.209 674.202C523.709 674.849 523.021 675.355 522.146 675.719C521.277 676.077 520.274 676.256 519.138 676.256C517.405 676.256 516.024 675.895 514.996 675.173C513.973 674.446 513.374 673.457 513.197 672.207L516.768 672.02C516.876 672.548 517.138 672.952 517.553 673.23C517.967 673.503 518.499 673.639 519.146 673.639C519.783 673.639 520.294 673.517 520.68 673.273C521.072 673.023 521.271 672.702 521.277 672.31C521.271 671.98 521.132 671.71 520.859 671.5C520.587 671.284 520.166 671.119 519.598 671.006L517.331 670.554C516.053 670.298 515.101 669.855 514.476 669.224C513.857 668.594 513.547 667.79 513.547 666.812C513.547 665.972 513.774 665.247 514.229 664.639C514.689 664.031 515.334 663.562 516.163 663.233C516.999 662.903 517.976 662.739 519.095 662.739C520.749 662.739 522.05 663.088 522.999 663.787C523.953 664.486 524.51 665.437 524.669 666.642ZM529.836 676L526.273 662.909H529.947L531.975 671.705H532.094L534.208 662.909H537.813L539.961 671.653H540.072L542.066 662.909H545.731L542.177 676H538.333L536.083 667.767H535.921L533.671 676H529.836ZM551.401 676.247C550.565 676.247 549.821 676.102 549.168 675.812C548.514 675.517 547.997 675.082 547.616 674.509C547.241 673.929 547.054 673.207 547.054 672.344C547.054 671.616 547.188 671.006 547.455 670.511C547.722 670.017 548.085 669.619 548.545 669.318C549.006 669.017 549.528 668.79 550.114 668.636C550.705 668.483 551.324 668.375 551.972 668.312C552.733 668.233 553.347 668.159 553.812 668.091C554.278 668.017 554.616 667.909 554.827 667.767C555.037 667.625 555.142 667.415 555.142 667.136V667.085C555.142 666.545 554.972 666.128 554.631 665.832C554.295 665.537 553.818 665.389 553.199 665.389C552.545 665.389 552.026 665.534 551.639 665.824C551.253 666.108 550.997 666.466 550.872 666.898L547.514 666.625C547.685 665.83 548.02 665.142 548.52 664.562C549.02 663.977 549.665 663.528 550.455 663.216C551.25 662.898 552.17 662.739 553.216 662.739C553.943 662.739 554.639 662.824 555.304 662.994C555.974 663.165 556.568 663.429 557.085 663.787C557.608 664.145 558.02 664.605 558.321 665.168C558.622 665.724 558.773 666.392 558.773 667.17V676H555.33V674.185H555.227C555.017 674.594 554.736 674.955 554.384 675.267C554.031 675.574 553.608 675.815 553.114 675.991C552.619 676.162 552.048 676.247 551.401 676.247ZM552.44 673.741C552.974 673.741 553.446 673.636 553.855 673.426C554.264 673.21 554.585 672.92 554.818 672.557C555.051 672.193 555.168 671.781 555.168 671.321V669.932C555.054 670.006 554.898 670.074 554.699 670.136C554.506 670.193 554.287 670.247 554.043 670.298C553.798 670.344 553.554 670.386 553.31 670.426C553.065 670.46 552.844 670.491 552.645 670.52C552.219 670.582 551.847 670.682 551.528 670.818C551.21 670.955 550.963 671.139 550.787 671.372C550.611 671.599 550.523 671.884 550.523 672.224C550.523 672.719 550.702 673.097 551.06 673.358C551.423 673.614 551.884 673.741 552.44 673.741ZM574.201 658.545H577.849V670.716C577.849 671.841 577.596 672.818 577.09 673.648C576.59 674.477 575.894 675.116 575.002 675.565C574.11 676.014 573.073 676.239 571.891 676.239C570.84 676.239 569.886 676.054 569.028 675.685C568.175 675.31 567.499 674.741 566.999 673.98C566.499 673.213 566.252 672.25 566.258 671.091H569.931C569.942 671.551 570.036 671.946 570.212 672.276C570.394 672.599 570.641 672.849 570.954 673.026C571.272 673.196 571.647 673.281 572.079 673.281C572.533 673.281 572.917 673.185 573.229 672.991C573.548 672.793 573.789 672.503 573.954 672.122C574.119 671.741 574.201 671.273 574.201 670.716V658.545ZM584.565 676.247C583.729 676.247 582.985 676.102 582.332 675.812C581.678 675.517 581.161 675.082 580.781 674.509C580.406 673.929 580.218 673.207 580.218 672.344C580.218 671.616 580.352 671.006 580.619 670.511C580.886 670.017 581.249 669.619 581.71 669.318C582.17 669.017 582.692 668.79 583.278 668.636C583.869 668.483 584.488 668.375 585.136 668.312C585.897 668.233 586.511 668.159 586.977 668.091C587.442 668.017 587.781 667.909 587.991 667.767C588.201 667.625 588.306 667.415 588.306 667.136V667.085C588.306 666.545 588.136 666.128 587.795 665.832C587.46 665.537 586.982 665.389 586.363 665.389C585.71 665.389 585.19 665.534 584.803 665.824C584.417 666.108 584.161 666.466 584.036 666.898L580.678 666.625C580.849 665.83 581.184 665.142 581.684 664.562C582.184 663.977 582.829 663.528 583.619 663.216C584.414 662.898 585.335 662.739 586.38 662.739C587.107 662.739 587.803 662.824 588.468 662.994C589.138 663.165 589.732 663.429 590.249 663.787C590.772 664.145 591.184 664.605 591.485 665.168C591.786 665.724 591.937 666.392 591.937 667.17V676H588.494V674.185H588.391C588.181 674.594 587.9 674.955 587.548 675.267C587.195 675.574 586.772 675.815 586.278 675.991C585.783 676.162 585.212 676.247 584.565 676.247ZM585.604 673.741C586.138 673.741 586.61 673.636 587.019 673.426C587.428 673.21 587.749 672.92 587.982 672.557C588.215 672.193 588.332 671.781 588.332 671.321V669.932C588.218 670.006 588.062 670.074 587.863 670.136C587.67 670.193 587.451 670.247 587.207 670.298C586.962 670.344 586.718 670.386 586.474 670.426C586.229 670.46 586.008 670.491 585.809 670.52C585.383 670.582 585.011 670.682 584.692 670.818C584.374 670.955 584.127 671.139 583.951 671.372C583.775 671.599 583.687 671.884 583.687 672.224C583.687 672.719 583.866 673.097 584.224 673.358C584.587 673.614 585.048 673.741 585.604 673.741ZM598.043 672.233L598.052 667.878H598.58L602.773 662.909H606.941L601.308 669.489H600.447L598.043 672.233ZM594.754 676V658.545H598.384V676H594.754ZM602.935 676L599.083 670.298L601.504 667.733L607.188 676H602.935ZM612.455 676.247C611.62 676.247 610.876 676.102 610.222 675.812C609.569 675.517 609.052 675.082 608.671 674.509C608.296 673.929 608.109 673.207 608.109 672.344C608.109 671.616 608.242 671.006 608.509 670.511C608.776 670.017 609.14 669.619 609.6 669.318C610.06 669.017 610.583 668.79 611.168 668.636C611.759 668.483 612.379 668.375 613.026 668.312C613.788 668.233 614.401 668.159 614.867 668.091C615.333 668.017 615.671 667.909 615.881 667.767C616.092 667.625 616.197 667.415 616.197 667.136V667.085C616.197 666.545 616.026 666.128 615.685 665.832C615.35 665.537 614.873 665.389 614.254 665.389C613.6 665.389 613.08 665.534 612.694 665.824C612.308 666.108 612.052 666.466 611.927 666.898L608.569 666.625C608.739 665.83 609.075 665.142 609.575 664.562C610.075 663.977 610.719 663.528 611.509 663.216C612.305 662.898 613.225 662.739 614.271 662.739C614.998 662.739 615.694 662.824 616.359 662.994C617.029 663.165 617.623 663.429 618.14 663.787C618.663 664.145 619.075 664.605 619.376 665.168C619.677 665.724 619.827 666.392 619.827 667.17V676H616.384V674.185H616.282C616.072 674.594 615.79 674.955 615.438 675.267C615.086 675.574 614.663 675.815 614.168 675.991C613.674 676.162 613.103 676.247 612.455 676.247ZM613.495 673.741C614.029 673.741 614.501 673.636 614.91 673.426C615.319 673.21 615.64 672.92 615.873 672.557C616.106 672.193 616.222 671.781 616.222 671.321V669.932C616.109 670.006 615.952 670.074 615.754 670.136C615.56 670.193 615.342 670.247 615.097 670.298C614.853 670.344 614.609 670.386 614.364 670.426C614.12 670.46 613.898 670.491 613.7 670.52C613.273 670.582 612.901 670.682 612.583 670.818C612.265 670.955 612.018 671.139 611.842 671.372C611.665 671.599 611.577 671.884 611.577 672.224C611.577 672.719 611.756 673.097 612.114 673.358C612.478 673.614 612.938 673.741 613.495 673.741ZM622.644 676V662.909H626.164V665.193H626.3C626.539 664.381 626.94 663.767 627.502 663.352C628.065 662.932 628.712 662.722 629.445 662.722C629.627 662.722 629.823 662.733 630.033 662.756C630.244 662.778 630.428 662.81 630.587 662.849V666.071C630.417 666.02 630.181 665.974 629.88 665.935C629.579 665.895 629.303 665.875 629.053 665.875C628.519 665.875 628.042 665.991 627.621 666.224C627.207 666.452 626.877 666.77 626.633 667.179C626.394 667.588 626.275 668.06 626.275 668.594V676H622.644ZM640.084 662.909V665.636H632.2V662.909H640.084ZM633.99 659.773H637.621V671.977C637.621 672.312 637.672 672.574 637.774 672.761C637.876 672.943 638.018 673.071 638.2 673.145C638.388 673.219 638.604 673.256 638.848 673.256C639.018 673.256 639.189 673.241 639.359 673.213C639.53 673.179 639.661 673.153 639.751 673.136L640.322 675.838C640.141 675.895 639.885 675.96 639.555 676.034C639.226 676.114 638.825 676.162 638.354 676.179C637.479 676.213 636.712 676.097 636.053 675.83C635.399 675.562 634.891 675.148 634.527 674.585C634.163 674.023 633.984 673.312 633.99 672.455V659.773ZM646.182 676.247C645.347 676.247 644.602 676.102 643.949 675.812C643.295 675.517 642.778 675.082 642.398 674.509C642.023 673.929 641.835 673.207 641.835 672.344C641.835 671.616 641.969 671.006 642.236 670.511C642.503 670.017 642.866 669.619 643.327 669.318C643.787 669.017 644.31 668.79 644.895 668.636C645.486 668.483 646.105 668.375 646.753 668.312C647.514 668.233 648.128 668.159 648.594 668.091C649.06 668.017 649.398 667.909 649.608 667.767C649.818 667.625 649.923 667.415 649.923 667.136V667.085C649.923 666.545 649.753 666.128 649.412 665.832C649.077 665.537 648.599 665.389 647.98 665.389C647.327 665.389 646.807 665.534 646.42 665.824C646.034 666.108 645.778 666.466 645.653 666.898L642.295 666.625C642.466 665.83 642.801 665.142 643.301 664.562C643.801 663.977 644.446 663.528 645.236 663.216C646.031 662.898 646.952 662.739 647.997 662.739C648.724 662.739 649.42 662.824 650.085 662.994C650.756 663.165 651.349 663.429 651.866 663.787C652.389 664.145 652.801 664.605 653.102 665.168C653.403 665.724 653.554 666.392 653.554 667.17V676H650.111V674.185H650.009C649.798 674.594 649.517 674.955 649.165 675.267C648.812 675.574 648.389 675.815 647.895 675.991C647.401 676.162 646.83 676.247 646.182 676.247ZM647.222 673.741C647.756 673.741 648.227 673.636 648.636 673.426C649.045 673.21 649.366 672.92 649.599 672.557C649.832 672.193 649.949 671.781 649.949 671.321V669.932C649.835 670.006 649.679 670.074 649.48 670.136C649.287 670.193 649.068 670.247 648.824 670.298C648.58 670.344 648.335 670.386 648.091 670.426C647.847 670.46 647.625 670.491 647.426 670.52C647 670.582 646.628 670.682 646.31 670.818C645.991 670.955 645.744 671.139 645.568 671.372C645.392 671.599 645.304 671.884 645.304 672.224C645.304 672.719 645.483 673.097 645.841 673.358C646.205 673.614 646.665 673.741 647.222 673.741Z" fill="black"/>
<path d="M353.631 693.727C353.631 691.937 353.863 690.292 354.327 688.791C354.795 687.286 355.463 685.901 356.33 684.636H357.807C357.466 685.105 357.146 685.683 356.848 686.369C356.554 687.051 356.296 687.802 356.074 688.621C355.851 689.435 355.676 690.278 355.548 691.149C355.425 692.02 355.364 692.88 355.364 693.727C355.364 694.854 355.473 695.998 355.69 697.158C355.908 698.318 356.202 699.395 356.571 700.389C356.94 701.384 357.352 702.193 357.807 702.818H356.33C355.463 701.554 354.795 700.171 354.327 698.67C353.863 697.165 353.631 695.517 353.631 693.727ZM360.252 701V699.722L365.053 694.466C365.616 693.85 366.08 693.315 366.445 692.861C366.81 692.402 367.079 691.971 367.255 691.568C367.435 691.161 367.525 690.735 367.525 690.29C367.525 689.778 367.401 689.336 367.155 688.962C366.914 688.588 366.582 688.299 366.161 688.095C365.739 687.892 365.266 687.79 364.74 687.79C364.182 687.79 363.694 687.906 363.277 688.138C362.865 688.365 362.546 688.685 362.319 689.097C362.096 689.509 361.985 689.991 361.985 690.545H360.309C360.309 689.693 360.505 688.945 360.898 688.301C361.291 687.657 361.826 687.155 362.503 686.795C363.185 686.436 363.95 686.256 364.797 686.256C365.65 686.256 366.405 686.436 367.063 686.795C367.721 687.155 368.237 687.641 368.611 688.251C368.985 688.862 369.172 689.542 369.172 690.29C369.172 690.825 369.075 691.348 368.881 691.859C368.692 692.366 368.36 692.932 367.887 693.557C367.418 694.177 366.767 694.935 365.934 695.83L362.667 699.324V699.438H369.428V701H360.252ZM377.105 701.199C376.035 701.199 375.124 700.908 374.371 700.325C373.618 699.738 373.043 698.888 372.645 697.776C372.248 696.658 372.049 695.309 372.049 693.727C372.049 692.155 372.248 690.813 372.645 689.7C373.048 688.583 373.625 687.731 374.378 687.143C375.136 686.552 376.045 686.256 377.105 686.256C378.166 686.256 379.073 686.552 379.826 687.143C380.583 687.731 381.161 688.583 381.559 689.7C381.961 690.813 382.162 692.155 382.162 693.727C382.162 695.309 381.963 696.658 381.566 697.776C381.168 698.888 380.593 699.738 379.84 700.325C379.087 700.908 378.176 701.199 377.105 701.199ZM377.105 699.636C378.166 699.636 378.99 699.125 379.577 698.102C380.164 697.08 380.458 695.621 380.458 693.727C380.458 692.468 380.323 691.395 380.053 690.51C379.788 689.625 379.404 688.95 378.902 688.486C378.405 688.022 377.806 687.79 377.105 687.79C376.054 687.79 375.233 688.308 374.641 689.345C374.049 690.377 373.753 691.838 373.753 693.727C373.753 694.987 373.886 696.057 374.151 696.938C374.416 697.818 374.797 698.488 375.294 698.947C375.796 699.407 376.4 699.636 377.105 699.636ZM389.975 686.455V701H388.213V688.301H388.128L384.577 690.659V688.869L388.213 686.455H389.975ZM398.789 686.256C399.385 686.26 399.982 686.374 400.578 686.597C401.175 686.819 401.72 687.188 402.212 687.705C402.704 688.216 403.1 688.914 403.398 689.8C403.696 690.685 403.846 691.795 403.846 693.131C403.846 694.423 403.722 695.571 403.476 696.575C403.235 697.574 402.884 698.417 402.425 699.104C401.971 699.79 401.417 700.311 400.763 700.666C400.114 701.021 399.381 701.199 398.561 701.199C397.747 701.199 397.02 701.038 396.381 700.716C395.747 700.389 395.226 699.937 394.819 699.359C394.416 698.777 394.158 698.102 394.044 697.335H395.777C395.934 698.003 396.244 698.554 396.708 698.99C397.176 699.421 397.794 699.636 398.561 699.636C399.684 699.636 400.569 699.146 401.218 698.166C401.871 697.186 402.198 695.801 402.198 694.011H402.084C401.819 694.409 401.504 694.752 401.14 695.041C400.775 695.33 400.37 695.553 399.925 695.709C399.48 695.865 399.007 695.943 398.505 695.943C397.671 695.943 396.907 695.737 396.211 695.325C395.519 694.909 394.965 694.338 394.549 693.614C394.137 692.884 393.931 692.051 393.931 691.114C393.931 690.223 394.13 689.409 394.527 688.67C394.93 687.927 395.493 687.335 396.218 686.895C396.947 686.455 397.804 686.241 398.789 686.256ZM398.789 687.818C398.192 687.818 397.655 687.967 397.176 688.266C396.703 688.559 396.327 688.957 396.047 689.459C395.773 689.956 395.635 690.508 395.635 691.114C395.635 691.72 395.768 692.271 396.033 692.768C396.303 693.261 396.67 693.654 397.134 693.947C397.603 694.236 398.135 694.381 398.732 694.381C399.182 694.381 399.601 694.293 399.989 694.118C400.377 693.938 400.716 693.694 401.005 693.386C401.298 693.074 401.528 692.721 401.694 692.328C401.859 691.93 401.942 691.516 401.942 691.085C401.942 690.517 401.805 689.984 401.53 689.487C401.26 688.99 400.886 688.588 400.408 688.28C399.935 687.972 399.395 687.818 398.789 687.818ZM412.917 692.946V694.509H406.553V692.946H412.917ZM415.154 701V699.722L419.955 694.466C420.519 693.85 420.983 693.315 421.347 692.861C421.712 692.402 421.982 691.971 422.157 691.568C422.337 691.161 422.427 690.735 422.427 690.29C422.427 689.778 422.304 689.336 422.058 688.962C421.816 688.588 421.485 688.299 421.063 688.095C420.642 687.892 420.168 687.79 419.643 687.79C419.084 687.79 418.596 687.906 418.18 688.138C417.768 688.365 417.448 688.685 417.221 689.097C416.998 689.509 416.887 689.991 416.887 690.545H415.211C415.211 689.693 415.407 688.945 415.8 688.301C416.193 687.657 416.728 687.155 417.406 686.795C418.087 686.436 418.852 686.256 419.7 686.256C420.552 686.256 421.307 686.436 421.965 686.795C422.623 687.155 423.139 687.641 423.513 688.251C423.888 688.862 424.075 689.542 424.075 690.29C424.075 690.825 423.978 691.348 423.783 691.859C423.594 692.366 423.263 692.932 422.789 693.557C422.32 694.177 421.669 694.935 420.836 695.83L417.569 699.324V699.438H424.33V701H415.154ZM432.008 701.199C430.938 701.199 430.026 700.908 429.273 700.325C428.521 699.738 427.945 698.888 427.548 697.776C427.15 696.658 426.951 695.309 426.951 693.727C426.951 692.155 427.15 690.813 427.548 689.7C427.95 688.583 428.528 687.731 429.281 687.143C430.038 686.552 430.947 686.256 432.008 686.256C433.068 686.256 433.975 686.552 434.728 687.143C435.486 687.731 436.063 688.583 436.461 689.7C436.863 690.813 437.065 692.155 437.065 693.727C437.065 695.309 436.866 696.658 436.468 697.776C436.07 698.888 435.495 699.738 434.742 700.325C433.989 700.908 433.078 701.199 432.008 701.199ZM432.008 699.636C433.068 699.636 433.892 699.125 434.479 698.102C435.067 697.08 435.36 695.621 435.36 693.727C435.36 692.468 435.225 691.395 434.955 690.51C434.69 689.625 434.307 688.95 433.805 688.486C433.308 688.022 432.709 687.79 432.008 687.79C430.957 687.79 430.135 688.308 429.543 689.345C428.951 690.377 428.656 691.838 428.656 693.727C428.656 694.987 428.788 696.057 429.053 696.938C429.318 697.818 429.7 698.488 430.197 698.947C430.699 699.407 431.302 699.636 432.008 699.636ZM439.763 701V699.722L444.565 694.466C445.128 693.85 445.592 693.315 445.957 692.861C446.321 692.402 446.591 691.971 446.766 691.568C446.946 691.161 447.036 690.735 447.036 690.29C447.036 689.778 446.913 689.336 446.667 688.962C446.425 688.588 446.094 688.299 445.673 688.095C445.251 687.892 444.778 687.79 444.252 687.79C443.693 687.79 443.206 687.906 442.789 688.138C442.377 688.365 442.058 688.685 441.83 689.097C441.608 689.509 441.496 689.991 441.496 690.545H439.82C439.82 689.693 440.017 688.945 440.41 688.301C440.803 687.657 441.338 687.155 442.015 686.795C442.697 686.436 443.461 686.256 444.309 686.256C445.161 686.256 445.916 686.436 446.575 686.795C447.233 687.155 447.749 687.641 448.123 688.251C448.497 688.862 448.684 689.542 448.684 690.29C448.684 690.825 448.587 691.348 448.393 691.859C448.203 692.366 447.872 692.932 447.398 693.557C446.93 694.177 446.279 694.935 445.445 695.83L442.178 699.324V699.438H448.94V701H439.763ZM456.987 686.455V701H455.225V688.301H455.14L451.589 690.659V688.869L455.225 686.455H456.987ZM464.778 693.727C464.778 695.517 464.543 697.165 464.075 698.67C463.611 700.171 462.945 701.554 462.079 702.818H460.602C460.942 702.349 461.26 701.772 461.553 701.085C461.852 700.403 462.112 699.655 462.335 698.841C462.557 698.022 462.73 697.177 462.853 696.305C462.981 695.429 463.045 694.57 463.045 693.727C463.045 692.6 462.936 691.457 462.718 690.297C462.5 689.137 462.207 688.06 461.837 687.065C461.468 686.071 461.056 685.261 460.602 684.636H462.079C462.945 685.901 463.611 687.286 464.075 688.791C464.543 690.292 464.778 691.937 464.778 693.727Z" fill="black"/>
</g>
</g>
<defs>
<filter id="filter0_d_896_8399" x="-4" y="0" width="1454" height="1056" filterUnits="userSpaceOnUse" color-interpolation-filters="sRGB">
<feFlood flood-opacity="0" result="BackgroundImageFix"/>
<feColorMatrix in="SourceAlpha" type="matrix" values="0 0 0 0 0 0 0 0 0 0 0 0 0 0 0 0 0 0 127 0" result="hardAlpha"/>
<feOffset dy="4"/>
<feGaussianBlur stdDeviation="2"/>
<feComposite in2="hardAlpha" operator="out"/>
<feColorMatrix type="matrix" values="0 0 0 0 0 0 0 0 0 0 0 0 0 0 0 0 0 0 0.25 0"/>
<feBlend mode="normal" in2="BackgroundImageFix" result="effect1_dropShadow_896_8399"/>
<feBlend mode="normal" in="SourceGraphic" in2="effect1_dropShadow_896_8399" result="shape"/>
</filter>
<filter id="filter1_d_896_8399" x="595.856" y="161.909" width="250.262" height="37.0908" filterUnits="userSpaceOnUse" color-interpolation-filters="sRGB">
<feFlood flood-opacity="0" result="BackgroundImageFix"/>
<feColorMatrix in="SourceAlpha" type="matrix" values="0 0 0 0 0 0 0 0 0 0 0 0 0 0 0 0 0 0 127 0" result="hardAlpha"/>
<feOffset dy="4"/>
<feGaussianBlur stdDeviation="2"/>
<feComposite in2="hardAlpha" operator="out"/>
<feColorMatrix type="matrix" values="0 0 0 0 0 0 0 0 0 0 0 0 0 0 0 0 0 0 0.25 0"/>
<feBlend mode="normal" in2="BackgroundImageFix" result="effect1_dropShadow_896_8399"/>
<feBlend mode="normal" in="SourceGraphic" in2="effect1_dropShadow_896_8399" result="shape"/>
</filter>
<filter id="filter2_d_896_8399" x="692.943" y="210.128" width="56.1206" height="52.6846" filterUnits="userSpaceOnUse" color-interpolation-filters="sRGB">
<feFlood flood-opacity="0" result="BackgroundImageFix"/>
<feColorMatrix in="SourceAlpha" type="matrix" values="0 0 0 0 0 0 0 0 0 0 0 0 0 0 0 0 0 0 127 0" result="hardAlpha"/>
<feOffset dy="4"/>
<feGaussianBlur stdDeviation="2"/>
<feComposite in2="hardAlpha" operator="out"/>
<feColorMatrix type="matrix" values="0 0 0 0 0 0 0 0 0 0 0 0 0 0 0 0 0 0 0.25 0"/>
<feBlend mode="normal" in2="BackgroundImageFix" result="effect1_dropShadow_896_8399"/>
<feBlend mode="normal" in="SourceGraphic" in2="effect1_dropShadow_896_8399" result="shape"/>
</filter>
<filter id="filter3_d_896_8399" x="226.5" y="320" width="989" height="128" filterUnits="userSpaceOnUse" color-interpolation-filters="sRGB">
<feFlood flood-opacity="0" result="BackgroundImageFix"/>
<feColorMatrix in="SourceAlpha" type="matrix" values="0 0 0 0 0 0 0 0 0 0 0 0 0 0 0 0 0 0 127 0" result="hardAlpha"/>
<feOffset dy="3"/>
<feGaussianBlur stdDeviation="2.5"/>
<feComposite in2="hardAlpha" operator="out"/>
<feColorMatrix type="matrix" values="0 0 0 0 0 0 0 0 0 0 0 0 0 0 0 0 0 0 0.51 0"/>
<feBlend mode="normal" in2="BackgroundImageFix" result="effect1_dropShadow_896_8399"/>
<feBlend mode="normal" in="SourceGraphic" in2="effect1_dropShadow_896_8399" result="shape"/>
</filter>
<filter id="filter4_d_896_8399" x="699.5" y="504" width="43" height="61" filterUnits="userSpaceOnUse" color-interpolation-filters="sRGB">
<feFlood flood-opacity="0" result="BackgroundImageFix"/>
<feColorMatrix in="SourceAlpha" type="matrix" values="0 0 0 0 0 0 0 0 0 0 0 0 0 0 0 0 0 0 127 0" result="hardAlpha"/>
<feOffset dy="4"/>
<feGaussianBlur stdDeviation="2"/>
<feComposite in2="hardAlpha" operator="out"/>
<feColorMatrix type="matrix" values="0 0 0 0 0 0 0 0 0 0 0 0 0 0 0 0 0 0 0.25 0"/>
<feBlend mode="normal" in2="BackgroundImageFix" result="effect1_dropShadow_896_8399"/>
<feBlend mode="normal" in="SourceGraphic" in2="effect1_dropShadow_896_8399" result="shape"/>
</filter>
<filter id="filter5_d_896_8399" x="226.5" y="619" width="989" height="127" filterUnits="userSpaceOnUse" color-interpolation-filters="sRGB">
<feFlood flood-opacity="0" result="BackgroundImageFix"/>
<feColorMatrix in="SourceAlpha" type="matrix" values="0 0 0 0 0 0 0 0 0 0 0 0 0 0 0 0 0 0 127 0" result="hardAlpha"/>
<feOffset dy="3"/>
<feGaussianBlur stdDeviation="2.5"/>
<feComposite in2="hardAlpha" operator="out"/>
<feColorMatrix type="matrix" values="0 0 0 0 0 0 0 0 0 0 0 0 0 0 0 0 0 0 0.44 0"/>
<feBlend mode="normal" in2="BackgroundImageFix" result="effect1_dropShadow_896_8399"/>
<feBlend mode="normal" in="SourceGraphic" in2="effect1_dropShadow_896_8399" result="shape"/>
</filter>
<clipPath id="clip0_896_8399">
<rect width="55" height="51" fill="white" transform="translate(693.5 207)"/>
</clipPath>
</defs>
</svg>
